<?xml version="1.0" encoding="UTF-8"?>
<svg viewBox="0 0 296 229" xmlns="http://www.w3.org/2000/svg">
<path d="m38.411 225.07c-2.0214-1.85-6.1953-5.677-9.2753-8.505-3.08-2.829-7.7164-7.076-10.303-9.44-2.5867-2.363-4.8731-4.466-5.0807-4.672-0.3576-0.355-9.758-8.819-11.541-10.391-0.79794-0.703-0.86833-1.099-1.5238-8.563l-0.68719-7.825 0.9843-0.847c1.476-1.269 4.3611-3.336 4.6578-3.336 0.07756 0 1.487-0.936 3.132-2.081 1.645-1.146 6.681-4.57 11.191-7.611 4.5101-3.04 9.6785-6.542 11.485-7.782 1.807-1.239 4.2735-2.876 5.4811-3.637 1.2077-0.76 2.5519-1.712 2.9871-2.114s0.9449-0.786 1.1328-0.852c0.2141-0.076-0.054-2.653-0.7191-6.913-0.994-6.366-1.0544-7.275-0.9638-14.491l0.0966-7.7 1.8579-1.304c1.0219-0.718 9.7626-6.496 19.424-12.841 9.6613-6.3459 18.706-12.301 20.1-13.235 2.2868-1.5319 6.3658-4.2161 11.992-7.8914 1.1148-0.7282 3.623-2.3755 5.5738-3.6606 1.9505-1.2852 5.2195-3.4262 7.2625-4.758 2.044-1.3317 4.248-2.7844 4.899-3.2283 1.735-1.1845 21.588-14.19 27.869-18.257 2.972-1.9249 6.159-4.0024 7.08-4.6166 0.922-0.6142 1.941-1.2779 2.265-1.4749s1.471-0.9418 2.547-1.6551c5.902-3.9105 9.408-6.0446 9.931-6.0446 0.324 0 1.047-0.4085 1.607-0.9079 0.559-0.4993 5.17-3.6304 10.244-6.958 5.075-3.3275 10.746-7.0687 12.602-8.3138 1.856-1.245 4.44-2.9213 5.743-3.725 3.032-1.8713 9.252-5.9535 18.413-12.086 3.995-2.6738 8.181-5.4219 9.302-6.107l2.04-1.2456 2.69 0.35403c4.927 0.6486 10.676 3.1316 16.012 6.9157 1.777 1.2602 6.817 5.2604 11.2 8.8896 8.683 7.189 9.277 7.6519 16.859 13.156 0.279 0.2023 1.83 1.2943 3.447 2.4267 6.717 4.7036 12.771 10.47 17.371 16.545 1.571 2.0736 3.039 4.0125 3.264 4.3086 1.867 2.4578 2.628 3.5985 2.892 4.3346 0.291 0.8107 1.228 12.521 1.187 14.824-0.037 2.0332-1.14 13.38-1.359 13.988-0.191 0.5272-6.695 5.1958-23.424 16.813-4.298 2.985-23.456 16.388-30.269 21.177-2.624 1.843-4.065 2.637-4.791 2.637-0.692 0-1.103 0.209-1.231 0.626-0.105 0.345-0.685 0.975-1.289 1.399-3.031 2.13-12.693 8.784-19.002 13.086-3.902 2.66-9.375 6.416-12.161 8.346-12.468 8.637-15.149 10.487-17.465 12.05-2.598 1.754-17.42 11.994-28.815 19.908-3.716 2.581-9.036 6.27-11.823 8.197-2.787 1.928-7.424 5.142-10.303 7.142-16.183 11.238-19.448 13.405-20.2 13.405-4.039 0-11.734-4.202-20.285-11.076-1.3649-1.098-2.8125-2.217-3.2168-2.489-0.6851-0.46-1.286-0.109-8.8349 5.157-4.4548 3.108-9.5439 6.65-11.309 7.873-1.765 1.222-6.5535 4.55-10.641 7.395-4.0875 2.846-9.1799 6.372-11.316 7.837-2.1367 1.465-3.9355 2.786-3.9974 2.936-0.3237 0.785-1.6725-0.049-4.9951-3.09zm6.9656-13.616c0 0.142 0.266 0.012 0.5912-0.288 0.3251-0.3 0.7431-0.607 0.9289-0.682 0.5388-0.217 5.3449-3.644 6.0018-4.279 0.3283-0.317 1.0123-0.804 1.5201-1.081 0.5078-0.278 0.9993-0.586 1.0922-0.685 0.3511-0.373 2.3451-1.791 2.5191-1.791 0.1 0 0.9224-0.564 1.8275-1.253 0.9051-0.69 1.7477-1.254 1.8724-1.254 0.3072 0 2.3669-1.544 2.5077-1.88 0.0619-0.148 0.3327-0.268 0.6018-0.268 0.269 0 0.5714-0.228 0.6719-0.505 0.1005-0.278 0.5137-0.594 0.9183-0.703s1.2089-0.648 1.7873-1.197c1.2508-1.187 2.3261-1.889 2.913-1.903 0.2348-6e-3 0.8661-0.484 1.4029-1.064 0.5369-0.581 1.108-0.969 1.2692-0.863s0.3843-0.06 0.4957-0.368c0.1115-0.308 0.4144-0.56 0.6733-0.56 0.2588 0 0.4705-0.172 0.4705-0.382 0-0.219 0.2881-0.285 0.6756-0.155 0.4695 0.158 0.6756 0.064 0.6756-0.307 0-0.294 0.8361-0.983 1.858-1.531 1.0219-0.549 1.8579-1.125 1.8579-1.281s0.2053-0.283 0.4562-0.283 0.7975-0.472 1.2147-1.049c0.4171-0.578 1.3518-1.301 2.0771-1.609s1.6457-0.958 2.0454-1.445c0.3997-0.488 0.8559-0.802 1.0137-0.699 0.1578 0.104 0.2869 0.018 0.2869-0.191 0-0.208 0.1449-0.379 0.3221-0.379 0.5457 0 3.488-3.369 3.071-3.516-0.2155-0.077-0.6492 0.095-0.9636 0.381-0.3144 0.285-0.8228 0.613-1.1298 0.728s-1.8704 1.106-3.4743 2.203c-1.6038 1.097-3.0392 1.995-3.1897 1.995-0.1506 0-0.5489 0.322-0.8851 0.716-0.3363 0.394-0.7924 0.716-1.0135 0.716s-0.6771 0.322-1.0134 0.716-0.8159 0.717-1.0658 0.717-0.4543 0.161-0.4543 0.358-0.1432 0.358-0.3181 0.358c-0.3217 0-5.9482 3.852-8.1271 5.565-0.6503 0.511-2.6265 1.89-4.3915 3.064s-3.5021 2.332-3.8601 2.572c-1.4515 0.976-6.1709 4.252-7.1186 4.942-2.5274 1.84-5.662 3.912-5.9189 3.912-0.1553 0-0.5116 0.243-0.7918 0.54s-1.6972 1.385-3.1488 2.417c-1.8766 1.335-2.6724 2.125-2.7536 2.734-0.0879 0.659 9e-3 0.806 0.4223 0.638 0.295-0.12 0.5364-0.043 0.5364 0.171 0 0.215 0.6841-0.204 1.5202-0.93 0.836-0.726 1.5201-1.204 1.5201-1.062zm-2.0268-6.44c0-0.077-0.236-0.236-0.5243-0.354-0.3006-0.122-0.4362-0.062-0.3179 0.141 0.1984 0.341 0.8422 0.504 0.8422 0.213zm-6.4153-1.825c-0.2296-0.293-0.5801-0.426-0.779-0.296-0.2188 0.143-0.1037 0.344 0.2916 0.508 0.9323 0.387 0.9501 0.379 0.4874-0.212zm10.807-0.899c0-0.197-0.152-0.358-0.3378-0.358-0.1857 0-0.3378 0.161-0.3378 0.358s0.1521 0.358 0.3378 0.358c0.1858 0 0.3378-0.161 0.3378-0.358zm-11.485-0.537c0-0.295-0.143-0.537-0.3179-0.537-0.4259 0-0.731 0.559-0.4611 0.845 0.3804 0.403 0.779 0.246 0.779-0.308zm4.5137 0c0.1069-0.295 0.0472-0.537-0.1328-0.537s-0.3272 0.17-0.3272 0.379-0.1755 0.264-0.39 0.124c-0.2416-0.159-0.2983-0.098-0.149 0.158 0.3329 0.571 0.7669 0.517 0.999-0.124zm8.8297 0.179c0.1148-0.197 0.0568-0.358-0.1291-0.358-0.1858 0-0.4317 0.161-0.5465 0.358-0.1149 0.197-0.0568 0.358 0.129 0.358s0.4318-0.161 0.5466-0.358zm-11.654-1.247c0-0.291 0.4041-0.637 0.8979-0.769 0.7852-0.209 0.8296-0.292 0.354-0.66-0.3433-0.266-0.473-0.709-0.3518-1.201 0.196-0.794 0.789-1.091 0.789-0.395 0 0.211 0.2377 0.132 0.5282-0.176 0.5642-0.598 0.3477-1.455-0.2659-1.053-0.2189 0.143-0.2695 0.073-0.1257-0.174 0.1685-0.289-0.2149-0.413-1.2745-0.413-1.302 0-1.6342-0.161-2.3575-1.14-0.6031-0.817-0.8256-0.956-0.7845-0.49 0.1031 1.171-1.0035 0.906-1.5811-0.378-0.3005-0.669-0.7955-1.215-1.1-1.215-0.4247 0-0.466 0.112-0.1773 0.48 0.4498 0.575 0.1671 0.98-0.4954 0.71-0.2605-0.106-0.4737-0.497-0.4737-0.87 0-0.44-0.2379-0.678-0.6756-0.678-0.3716 0-0.6756-0.15-0.6756-0.334s-0.304-0.437-0.6756-0.562-0.6757-0.467-0.6757-0.761c0-0.332 0.1599-0.433 0.4223-0.265 0.3194 0.203 0.316 0.129-0.014-0.302-0.3382-0.443-0.3435-0.604-0.0237-0.717 0.261-0.093 0.3191-0.402 0.1579-0.841-0.2451-0.669-0.2787-0.664-0.8894 0.13-0.5542 0.72-0.8624 0.804-2.4314 0.661-1.8028-0.164-3.4588 0.476-2.6329 1.017 0.2044 0.134 0.2809 0.547 0.1699 0.918-0.1544 0.515 1e-3 0.719 0.6619 0.865 2.6825 0.593 2.5021 0.635 2.6157-0.611 0.0748-0.82 0.3014-1.202 0.7708-1.296 0.5762-0.116 0.6047-0.057 0.2134 0.443-0.2482 0.317-0.3731 0.894-0.2774 1.281 0.2126 0.863-0.2857 1.297-1.5871 1.384-1.2022 0.081-1.6331 0.422-0.5324 0.422 0.4344 0 1.0417 0.242 1.3495 0.537 0.3079 0.296 1.0537 0.598 1.6575 0.673 1.3987 0.172 2.0209 0.772 1.0737 1.035-0.3805 0.105-1.2587-0.115-1.9517-0.489-1.3654-0.738-2.8526-0.946-2.2578-0.315 0.1902 0.202 0.707 0.44 1.1485 0.53 0.4415 0.091 0.9262 0.398 1.0771 0.684 0.1519 0.288 0.7275 0.506 1.2886 0.49 1.0787-0.033 1.7966 0.426 1.0869 0.695-0.5984 0.227-0.1699 0.816 0.5933 0.816 0.9417 0 1.1604-0.667 0.4802-1.464-0.4616-0.54-0.5075-0.799-0.1996-1.126 0.3079-0.326 0.5352-0.271 0.9886 0.238 0.3932 0.442 0.4225 0.562 0.0882 0.36-0.2752-0.166-0.1469 0.174 0.2851 0.755 0.4321 0.582 1.0374 1.058 1.3451 1.058 0.3076 0 0.5728 0.162 0.5893 0.358 0.1272 1.516 1.9252 2.603 2.5456 1.539 0.1425-0.244 0.365-0.332 0.4945-0.194 0.1295 0.137 0.0431 0.495-0.1919 0.795-0.36 0.46-0.3144 0.546 0.2896 0.546 0.4081 0 0.717-0.229 0.717-0.531h-1e-4zm-3.2106-1.262c-0.1156-0.199 0.034-0.46 0.3324-0.582 0.6468-0.263 1.0073 0.027 0.6964 0.56-0.2805 0.481-0.755 0.491-1.0288 0.022zm2.535-1.04c0-0.202-0.1996-0.287-0.4435-0.187-0.244 0.099-0.7236-0.148-1.0658-0.549-0.7046-0.825-1.3537-0.973-1.0912-0.248 0.1248 0.345-0.0567 0.435-0.6395 0.317-0.5166-0.105-0.8137-0.411-0.8137-0.84 0-0.371-0.1609-0.674-0.3577-0.674s-0.2852-0.124-0.1966-0.276-0.5485-0.567-1.4158-0.921c-0.8672-0.355-1.8524-0.802-2.1891-0.994-0.3368-0.193-0.9296-0.243-1.3175-0.113-0.6989 0.235-0.6985 0.228 0.0442-0.878 0.4121-0.614 0.8529-1.11 0.9796-1.104 0.4065 0.021 1.7505 1.344 1.7505 1.723 0 0.361 1.1088 0.889 1.9536 0.93 0.2385 0.012 0.5425 0.186 0.6756 0.387 0.333 0.502 1.9925 1.246 2.781 1.246 0.4227 0 0.5848 0.178 0.4646 0.51-0.1933 0.534 0.9701 1.425 1.3436 1.029 0.1174-0.124 0.2134-0.047 0.2134 0.171s-0.1521 0.496-0.3379 0.618c-0.1857 0.122-0.3378 0.056-0.3378-0.147zm-12.214-6.847c-0.3459-0.214-0.4921-0.62-0.3828-1.063 0.2066-0.838 0.3884-0.868 1.2139-0.205 0.456 0.367 0.4984 0.537 0.1689 0.678-0.3458 0.147-0.3315 0.269 0.0665 0.568 0.4504 0.337 0.4504 0.379 0 0.374-0.2787-2e-3 -0.7586-0.161-1.0665-0.352zm9.1739 8.806c0-0.087-0.1521-0.258-0.3378-0.38-0.1858-0.121-0.3378-0.05-0.3378 0.158 0 0.209 0.152 0.38 0.3378 0.38s0.3378-0.071 0.3378-0.158zm-1.3513-0.738c0-0.35-0.3236-0.533-0.9289-0.526-0.8898 0.01-0.9014 0.034-0.2733 0.538 0.8356 0.67 1.2022 0.666 1.2022-0.012zm9.4114-0.895c0.2118 0 0.385-0.18 0.385-0.4 0-0.24-0.304-0.314-0.76-0.184-0.4181 0.119-1.0246 0.218-1.3479 0.221-0.558 4e-3 -0.5581 0.042-2e-3 0.73 0.5146 0.637 0.6319 0.659 0.9629 0.179 0.2074-0.3 0.5503-0.546 0.7621-0.546h-1e-4zm4.6076 0.716c0.1149-0.197 0.0478-0.358-0.1489-0.358-0.1968 0-0.3578 0.161-0.3578 0.358s0.0671 0.358 0.149 0.358 0.2429-0.161 0.3577-0.358zm-1.0278-1.099c-0.1069-0.183-0.0334-0.333 0.1634-0.333 0.1967 0 0.3577-0.237 0.3577-0.526 0-0.9-0.8634-0.225-0.9382 0.733-0.0416 0.534 0.0695 0.815 0.2704 0.683 0.1875-0.123 0.2536-0.374 0.1467-0.557zm2.548-0.133c0-0.087-0.1521-0.258-0.3378-0.379-0.1858-0.122-0.3379-0.051-0.3379 0.158 0 0.208 0.1521 0.379 0.3379 0.379 0.1857 0 0.3378-0.071 0.3378-0.158zm2.149-0.738c-0.2056-0.567-0.7978-0.745-0.7978-0.238 0 0.378 0.3692 0.776 0.7213 0.776 0.149 0 0.1834-0.242 0.0765-0.538zm4.9449 0.179c0-0.197-0.152-0.358-0.3378-0.358s-0.3378 0.162-0.3378 0.358c0 0.197 0.152 0.359 0.3378 0.359s0.3378-0.162 0.3378-0.359zm-7.0939-1.253c0-0.295 0.2863-0.537 0.6362-0.537 0.3525 0 0.7151-0.32 0.8132-0.718 0.1181-0.479 0.3562-0.645 0.715-0.499 0.2959 0.121 0.538 0.041 0.538-0.177s-0.1355-0.397-0.3012-0.397c-0.1656 0-0.3884-0.368-0.495-0.819-0.2238-0.945-2.2059-1.862-3.2588-1.508-0.9829 0.331-0.859 1.548 0.186 1.826 0.8775 0.234 1.6807-0.182 0.9132-0.473-0.2322-0.088-0.4222-0.308-0.4222-0.488 0-0.547 0.796-0.347 1.6613 0.416 0.7841 0.692 0.7924 0.746 0.2091 1.331-0.5765 0.579-0.5984 0.569-0.4262-0.195 0.0998-0.443 0.0438-0.806-0.1246-0.806s-0.3062 0.161-0.3062 0.358c0 0.731-2.4036 0.384-3.0989-0.448-0.3968-0.474-0.6083-0.579-0.5147-0.255 0.1253 0.434-0.0742 0.521-0.9451 0.413-0.8562-0.106-1.0691-0.278-0.9488-0.765 0.0852-0.346-0.0957-0.894-0.402-1.219-0.6567-0.696-1.3069-0.782-1.0859-0.143 0.0851 0.246 0.3258 0.407 0.5348 0.358 0.5179-0.122 0.4832 0.516-0.0422 0.776-0.3378 0.167-0.3378 0.251 0 0.418 0.2322 0.115 0.4223 0.537 0.4223 0.939 0 0.599 0.0885 0.652 0.4919 0.297 0.5868-0.516 1.1971-0.202 1.1971 0.617 0 0.435 0.0989 0.483 0.379 0.186 0.4079-0.432 1.31-0.228 1.31 0.297 0 0.176-0.228 0.32-0.5067 0.32s-0.5067 0.144-0.5067 0.32c0 0.511 1.0928 0.813 1.4753 0.408 0.5139-0.545 0.8971-0.45 0.6737 0.167-0.1349 0.373 0.0234 0.538 0.5173 0.538 0.4075 0 0.7118-0.23 0.7118-0.538zm-5.3065-0.448c-0.2858-0.821-0.7715-1.151-1.703-1.158-0.4181-2e-3 -0.7601-0.167-0.7601-0.364s0.2146-0.358 0.4768-0.358c0.3784 0 0.4829-0.616 0.2247-1.324-0.0142-0.039-0.4768 0.096-1.028 0.299-0.9713 0.359-0.9856 0.398-0.4641 1.241 0.4943 0.8 0.4934 0.853-0.0112 0.647-0.3021-0.123-0.5493-0.062-0.5493 0.135 0 0.449 0.9695 0.864 1.3847 0.592 0.4553-0.299 1.6984 0.196 1.4716 0.585-0.1066 0.183 0.1145 0.332 0.4912 0.332 0.5102 0 0.6293-0.16 0.4668-0.627h-1e-4zm13.855-0.358c-0.1357-0.541-0.2527-1.347-0.2598-1.79-0.0164-1.028-0.1234-1.016-0.5091 0.06-0.2066 0.576-0.1756 1.175 0.0928 1.788 0.5354 1.223 0.9875 1.185 0.6761-0.058zm-18.015-0.358c-0.0042-0.148-0.3071-0.671-0.6732-1.164-0.564-0.758-0.7167-0.813-1.0007-0.358-0.5029 0.806-0.4146 1.361 0.2457 1.544 0.973 0.269 1.4361 0.262 1.4282-0.022zm15.547-0.806c0-0.197-0.313-0.358-0.6956-0.358-0.3825 0-0.6016 0.161-0.4867 0.358 0.1148 0.197 0.4278 0.358 0.6955 0.358s0.4868-0.161 0.4868-0.358zm4.7293-0.358c0-0.197-0.152-0.358-0.3378-0.358s-0.3378 0.161-0.3378 0.358 0.152 0.358 0.3378 0.358 0.3378-0.161 0.3378-0.358zm1.5563-0.566c-0.1128-0.312-0.2051-0.619-0.2051-0.683s-0.3265-0.026-0.7255 0.085c-0.6942 0.192-0.6987 0.222-0.1044 0.683 0.8328 0.645 1.2859 0.608 1.035-0.085zm-25.118-0.738c-0.7896-0.504-1.4356-1.079-1.4356-1.277s-0.2298-0.267-0.5106-0.153c-0.84 0.342-2.8733-0.92-2.6636-1.653 0.1139-0.397-1e-3 -0.627-0.3139-0.627-0.6206 0-1.0876 1.189-0.5427 1.381 0.2196 0.078 0.6844 0.444 1.0327 0.813 0.3484 0.369 0.6334 0.571 0.6334 0.449 0-0.123 0.204-0.044 0.4534 0.176 0.2493 0.219 0.5658 0.279 0.7032 0.134 0.1374-0.146 0.4353 4e-3 0.662 0.332 0.2267 0.329 0.9363 0.757 1.577 0.952 1.8536 0.564 1.9384 0.454 0.4047-0.526v-1e-3zm19.846 0.599c0-0.191-0.228-0.254-0.5067-0.141-0.2787 0.114-0.5067 0.27-0.5067 0.347 0 0.078 0.228 0.141 0.5067 0.141s0.5067-0.156 0.5067-0.347zm-3.1317-0.227c-0.1123-0.119-0.4036-0.132-0.6475-0.029-0.2695 0.115-0.1894 0.2 0.2041 0.217 0.3561 0.016 0.5556-0.069 0.4434-0.188zm-11.732-0.858c0-0.361-0.9517-0.612-2.1113-0.558-0.5109 0.024-0.929-0.145-0.929-0.377 0-0.783-2.1241-1.2-2.5339-0.497-0.115 0.197 0.18 0.515 0.6557 0.707 0.4756 0.192 0.8648 0.505 0.8648 0.695 0 0.191 0.6461 0.396 1.4357 0.457 1.6492 0.126 2.618-0.032 2.618-0.427zm18.964 0.012c1.0495-0.927 0.4796-0.938-0.6304-0.012-0.4724 0.394-0.7033 0.716-0.513 0.716s0.7048-0.317 1.1434-0.704zm2.7399-0.511c0.725-0.583 0.7567-0.934 0.0845-0.934-0.2787 0-0.5067 0.228-0.5067 0.508 0 0.279-0.1901 0.588-0.4223 0.687-0.2322 0.1-0.2703 0.189-0.0845 0.198 0.1858 0.01 0.6039-0.197 0.929-0.459zm-16.926-0.586c-0.4374-0.386-0.9315-0.613-1.0979-0.504s-0.3026-0.456-0.3026-1.255c0-1.22 0.1099-1.454 0.682-1.454 0.5589 0 0.6438 0.162 0.4701 0.895-0.1603 0.678-0.0795 0.896 0.3314 0.896 0.522 0 0.6857-0.387 0.5685-1.343-0.0555-0.453 0.7099-0.624 1.0728-0.239 0.1084 0.115-0.115 0.77-0.4965 1.455-0.5058 0.909-0.5927 1.354-0.3208 1.642 0.2718 0.288 0.4313 0.234 0.5889-0.202 0.1189-0.328 0.4465-0.597 0.728-0.597 0.4168 0 0.4338-0.1 0.0914-0.537-0.8184-1.046 0.3141-0.557 1.3354 0.576 0.9364 1.039 1.0891 1.089 2.2832 0.753 0.8923-0.251 1.0435-0.371 0.4996-0.397-0.448-0.021-0.6875-0.195-0.5628-0.409 0.1408-0.242-0.0897-0.291-0.6557-0.141-0.823 0.219-1.0572-0.04-0.9128-1.009 0.022-0.148-0.264-0.268-0.6356-0.268s-0.6756-0.162-0.6756-0.359 0.228-0.358 0.5067-0.358c0.5919 0 0.6735-0.564 0.1328-0.919-0.2628-0.172-0.2431-0.33 0.0663-0.533 0.6168-0.404 1.6758 0.272 1.4412 0.921-0.1411 0.389 0.0523 0.531 0.7239 0.531 1.1458 0 2.9771 1.536 2.471 2.073-0.3908 0.414-0.0951 1.15 0.4621 1.15 0.2265 0 0.2039-0.198-0.0613-0.537-0.3541-0.452-0.2913-0.537 0.3978-0.537 0.45 0 0.9786 0.17 1.1745 0.378 0.3233 0.342 2.4814 0.819 2.4814 0.548 0-0.063-0.5701-0.522-1.2668-1.02-3.4242-2.449-7.1784-6.244-7.1784-7.258 0-1.058-1.1153-1.371-1.7201-0.481-0.5389 0.793-0.9824 0.87-0.9824 0.172 0-0.275-0.2617-0.606-0.5817-0.736-0.4902-0.199-0.505-0.287-0.0942-0.556 0.6702-0.439 0.3009-0.733-0.6056-0.481-0.7317 0.203-1.0702 1.197-0.4075 1.197 0.1858 0 0.3378 0.222 0.3378 0.493 0 0.27 0.418 0.584 0.929 0.697 0.5109 0.113 1.3546 0.631 1.8749 1.151 0.7533 0.752 0.8652 1.048 0.5498 1.451-0.5716 0.73-1.0693 0.622-0.8292-0.18 0.113-0.378 0.0472-0.79-0.1461-0.917-0.1934-0.126-0.3516 0.021-0.3516 0.328s-0.1342 0.559-0.2984 0.559c-0.1641 0-0.383 0.343-0.4865 0.762-0.1303 0.528-0.3587 0.694-0.7427 0.537-0.3049-0.124-0.8461-0.225-1.2025-0.225-0.3563 0-0.6479-0.161-0.6479-0.358s0.228-0.358 0.5067-0.358 0.5067-0.172 0.5067-0.383c0-0.21-0.2842-0.286-0.6338-0.169-0.4569 0.154-0.6859 2e-3 -0.8209-0.545-0.1618-0.656-0.0758-0.729 0.6338-0.541 0.4671 0.125 0.8209 0.062 0.8209-0.146 0-0.201-0.1943-0.365-0.4317-0.365s-0.7042-0.338-1.0373-0.75c-0.5273-0.653-0.6573-0.681-1.0041-0.215-1.1457 1.538-2.9318 0.765-2.9318-1.269 0-1.594-0.3478-0.997-0.5489 0.942-0.1103 1.063-0.0402 1.65 0.1972 1.65 0.2026 0 0.5129 0.403 0.6895 0.895 0.3944 1.1 1.157 1.223 0.8311 0.134-0.16-0.534-0.1097-0.683 0.1686-0.501 0.219 0.144 0.5834-0.012 0.814-0.345 0.3834-0.556 0.4547-0.558 0.8699-0.028 0.3842 0.491 0.3754 0.546-0.0587 0.37-0.3005-0.122-0.6004 0.039-0.7284 0.393-0.1698 0.469-0.0681 0.559 0.4628 0.412 0.3741-0.104 0.7654-0.042 0.8695 0.136 0.104 0.178-0.0479 0.325-0.3375 0.325-0.2897 0-0.5267 0.161-0.5267 0.358s-0.3813 0.358-0.8473 0.358c-0.7645 0-0.8059 0.07-0.423 0.72 0.2334 0.397 0.6205 0.641 0.8602 0.544 0.55-0.224 0.9521 0.811 0.5008 1.29-0.2239 0.237-0.514 0.169-0.8652-0.203-0.2906-0.308-0.7838-0.561-1.0959-0.561-0.4366 0-0.5186-0.206-0.3555-0.895 0.237-1.001 0.1211-1.068-0.8729-0.504-0.6558 0.372-0.6174 0.461 0.7823 1.807 0.9086 0.874 1.7 1.353 2.0676 1.253 0.3498-0.096 0.7329 0.108 0.9282 0.495 0.3042 0.603 1.0235 0.91 2.361 1.007 0.3362 0.024 0.2391-0.2-0.2885-0.666zm-4.3141 0.083c0.0916-0.158 0.0246-0.52-0.149-0.806-0.2746-0.453-0.3586-0.45-0.6481 0.018-0.1956 0.316-0.3348 0.363-0.3378 0.115-0.0028-0.232-0.6133-0.706-1.3564-1.053-1.2428-0.582-2.0006-1.552-0.8446-1.081 0.2996 0.121 0.5068 4e-3 0.5068-0.288 0-0.272 0.4566-0.902 1.0147-1.4 0.5752-0.513 0.8654-1.003 0.6701-1.131-0.1896-0.124-0.267-0.358-0.1722-0.521 0.0949-0.163-0.0671-0.394-0.3599-0.513-0.8108-0.33-1.8925-0.258-1.6773 0.111 0.276 0.474-0.5587 0.704-1.2284 0.34-0.3442-0.188-0.6538-0.169-0.78 0.048-0.1152 0.197-0.3614 0.359-0.5472 0.359s-0.2506-0.149-0.144-0.332c0.2963-0.508-1.1378-0.856-1.6547-0.401-0.2502 0.22-0.5849 0.375-0.7438 0.345-0.7641-0.145-1.1335 0.091-1.1335 0.725 0 0.382 0.152 0.795 0.3378 0.917 0.1858 0.121 0.3402-0.071 0.343-0.427 0.0038-0.472 0.0799-0.523 0.2804-0.188 0.1517 0.254 0.5283 0.357 0.8393 0.23 0.3176-0.129 0.5642-0.056 0.5642 0.167 0 0.218-0.152 0.397-0.3378 0.397s-0.3378 0.224-0.3378 0.499c0 0.564 0.9115 1.042 1.3899 0.729 0.1736-0.114 0.7973-0.095 1.3861 0.042 1.007 0.235 1.0326 0.279 0.4318 0.745-0.3514 0.272-0.9508 0.403-1.3322 0.291-0.5574-0.164-0.594-0.13-0.1866 0.172 0.2787 0.207 1.1148 0.381 1.8579 0.387 0.9981 8e-3 1.2188 0.102 0.8446 0.358-0.4225 0.289-0.3945 0.355 0.1689 0.395 0.3715 0.026 0.869 0.021 1.1054-0.012s0.6653 0.19 0.9531 0.495c0.5773 0.612 1.0227 0.706 1.2773 0.269v-1e-3zm-4.2863-3.201c-0.265-0.476 0.4215-1.942 0.7951-1.698 0.2476 0.163 0.2494 0.372 0.0058 0.683-0.1932 0.247-0.2665 0.539-0.1628 0.649 0.1036 0.109 0.0368 0.299-0.1485 0.42-0.1853 0.122-0.4056 0.097-0.4895-0.053l-1e-4 -1e-3zm-1.8222-0.973c-0.3217-0.388-0.3021-0.585 0.0926-0.932 0.583-0.513 0.9283-0.256 0.9977 0.743 0.0566 0.814-0.4931 0.91-1.0903 0.189zm24.899 3.743c0.2787-0.191 0.3547-0.347 0.1689-0.347s-0.5658 0.156-0.8445 0.347-0.3547 0.347-0.1689 0.347 0.5658-0.156 0.8445-0.347zm1.5975 0.142c-0.1122-0.119-0.4036-0.132-0.6474-0.028-0.2695 0.114-0.1895 0.199 0.2041 0.216 0.3561 0.016 0.5556-0.069 0.4433-0.188zm-27.463-1.177c0.1023-0.175-0.1928-0.582-0.6557-0.904-0.4628-0.321-0.8416-0.822-0.8416-1.113s-0.152-0.529-0.3378-0.529-0.3378 0.242-0.3378 0.537c0 0.296 0.1276 0.537 0.2836 0.537s0.4567 0.403 0.6684 0.896c0.3927 0.914 0.8879 1.147 1.2209 0.576zm30.251-1.084c0.0078-0.76-0.4469-0.131-0.5675 0.785-0.0832 0.633-0.0359 0.686 0.2288 0.26 0.1834-0.296 0.3359-0.766 0.3387-1.045zm2.926 0.575c0.1276-0.136-0.1733-0.246-0.6688-0.246-0.4954 0-0.9008 0.134-0.9008 0.298 0 0.349 1.2299 0.308 1.5696-0.052zm-38.402-2.127c0.0164-0.401-0.5924-0.324-0.8437 0.107-0.1421 0.244-0.3568 0.255-0.6121 0.03-0.2596-0.228-0.6797-0.165-1.2367 0.186-0.4639 0.293-0.5775 0.446-0.2524 0.34 0.3596-0.117 0.5912-4e-3 0.5912 0.288 0 0.383 0.2386 0.363 1.1713-0.101 0.6443-0.319 1.1763-0.702 1.1824-0.85zm38.183 0.806c0-0.197-0.152-0.358-0.3378-0.358s-0.3378 0.161-0.3378 0.358 0.152 0.358 0.3378 0.358 0.3378-0.161 0.3378-0.358zm1.0135 0.2c0-0.086-0.152-0.257-0.3378-0.379s-0.3378-0.05-0.3378 0.158c0 0.209 0.152 0.379 0.3378 0.379s0.3378-0.071 0.3378-0.158zm1.3512-0.2c0-0.197-0.067-0.358-0.149-0.358-0.0819 0-0.2429 0.161-0.3577 0.358s-0.0478 0.358 0.149 0.358c0.1967 0 0.3577-0.161 0.3577-0.358zm-48.644-0.158c0-0.087-0.152-0.257-0.3378-0.379s-0.3378-0.051-0.3378 0.158 0.152 0.379 0.3378 0.379 0.3378-0.071 0.3378-0.158zm4.133-0.711c0.4619-0.715 0.2851-1.367-0.3057-1.127-0.3103 0.126-0.6639 0.059-0.7858-0.15s-0.21 0.167-0.1959 0.836c0.0196 0.923 0.1479 1.17 0.5325 1.021 0.2787-0.108 0.6184-0.369 0.7549-0.58zm43.642-1.093c-0.9836-0.789-1.373-0.648-0.4796 0.174 0.4299 0.395 0.86 0.635 0.956 0.533s-0.1184-0.42-0.4764-0.707zm-38.063 0.291c-0.3251-0.094-0.5911-0.387-0.5911-0.649 0-0.379-0.1688-0.393-0.8157-0.069-1.0795 0.54-0.8646 0.798 0.7075 0.849 0.7098 0.023 1.0245-0.036 0.6993-0.131zm40.959-0.657c0.2486-0.492 0.6608-0.895 0.9159-0.895 0.7254 0 1.3625-0.81 1.1894-1.511-0.2106-0.854-0.7749-0.81-0.994 0.079-0.2058 0.834-0.7734 0.966-0.7734 0.179 0-0.296-0.1378-0.538-0.3062-0.538s-0.2267 0.323-0.1295 0.717c0.1228 0.498 0.0104 0.716-0.3695 0.716-0.3003 0-0.5461 0.156-0.5461 0.347s0.2281 0.254 0.5067 0.141c0.2787-0.114 0.5067-0.012 0.5067 0.223 0 0.237-0.3023 0.514-0.6718 0.617-0.3695 0.102-0.5885 0.329-0.4867 0.503 0.315 0.541 0.6879 0.355 1.1585-0.578zm-43.117-1.074c0.1069-0.295 0.0635-0.537-0.0966-0.537s-0.3786 0.242-0.4855 0.537c-0.107 0.295-0.0635 0.537 0.0966 0.537s0.3786-0.242 0.4855-0.537zm3.5937-0.837c0-0.332 0.1932-0.406 0.5912-0.228 0.3251 0.146 0.8882 0.251 1.2512 0.234 0.363-0.018 0.8551 0.141 1.0936 0.351 0.4978 0.438 1.4555 0.156 1.4555-0.428 0-0.219-0.2752-0.301-0.6192-0.185-0.4474 0.15-0.7337-0.059-1.032-0.753-0.37-0.86-0.3574-0.912 0.1206-0.491 0.8634 0.76 1.0472 0.073 0.2035-0.76-0.6309-0.623-0.826-0.671-1.072-0.265-0.1654 0.273-0.2633 0.815-0.2176 1.204 0.0531 0.452-0.1485 0.757-0.5573 0.842-0.4724 0.1-0.586-0.016-0.4328-0.438 0.1567-0.433-0.0024-0.574-0.6491-0.574-0.7226 0-0.8207 0.121-0.6264 0.769 0.2127 0.711 0.1434 0.751-0.9062 0.529-0.6251-0.132-1.1872-0.397-1.2491-0.59-0.1484-0.461-1.4076-0.454-1.4076 8e-3 0 0.197 0.3203 0.358 0.7118 0.358 0.4306 0 0.6478 0.177 0.5498 0.448-0.1141 0.316 0.2743 0.45 1.3151 0.455 1.0329 6e-3 1.477-0.141 1.477-0.486zm5.6096-0.97c-0.2926-0.227-0.433-0.518-0.312-0.646s0.0553-0.233-0.146-0.233c-0.5345 0-0.7166 0.797-0.3531 1.545 0.2602 0.536 0.406 0.571 0.8294 0.198 0.4588-0.403 0.4569-0.496-0.0184-0.864h1e-4zm37.514 0.483c-0.1068-0.433-0.0269-1.001 0.1776-1.262 0.2045-0.262 0.2741-0.579 0.1548-0.705-0.1194-0.127-0.2171-0.033-0.2171 0.208 0 0.242-0.1531 0.339-0.3402 0.216-0.5269-0.345-0.7693 0.754-0.3495 1.586 0.493 0.976 0.8198 0.952 0.5744-0.043zm-30.903-1.38c-0.4045-0.399-0.7354-0.944-0.7354-1.211 0-0.473-1.6087-1.124-1.9317-0.782-0.332 0.352 0.3288 0.978 0.8211 0.778 0.3755-0.153 0.4509-0.044 0.2858 0.412-0.1234 0.341-0.124 0.514-0.0013 0.384 0.1226-0.13 0.6174 0.151 1.0994 0.625s0.9487 0.785 1.037 0.691-0.1704-0.497-0.5749-0.897zm25.614 0.935c0-0.378-0.6483-0.537-0.8411-0.207-0.1167 0.201 0.0248 0.364 0.3145 0.364 0.2896 0 0.5266-0.071 0.5266-0.158v1e-3zm-2.8714-0.559c0.1149-0.197 0.0478-0.358-0.1489-0.358-0.1968 0-0.3578 0.161-0.3578 0.358s0.0671 0.358 0.149 0.358 0.2429-0.161 0.3577-0.358zm-39.861-0.358c-0.1148-0.197-0.4278-0.358-0.6955-0.358-0.2678 0-0.4868 0.161-0.4868 0.358s0.313 0.358 0.6955 0.358c0.3826 0 0.6016-0.161 0.4868-0.358zm3.2092 0c0-0.197-0.228-0.358-0.5067-0.358s-0.5067 0.161-0.5067 0.358 0.228 0.358 0.5067 0.358 0.5067-0.161 0.5067-0.358zm11.148-0.179c0-0.295-0.2466-0.537-0.5481-0.537-0.4488 0-0.4719 0.097-0.1275 0.537 0.2313 0.296 0.4779 0.537 0.5481 0.537 0.0701 0 0.1275-0.241 0.1275-0.537zm29.887 0.195c0.1098-0.189 0.4077-0.258 0.6619-0.155 0.2951 0.12 0.4439-0.047 0.4115-0.463-0.028-0.358 0.1392-0.611 0.3714-0.562 0.7488 0.159 0.4437-0.434-0.4495-0.874-0.7464-0.367-0.8101-0.354-0.4593 0.094 0.3298 0.422 0.2347 0.69-0.4994 1.412-0.4987 0.49-0.7559 0.89-0.5715 0.89s0.4251-0.154 0.5349-0.342zm7.7787 0.024c0.1858-0.038-0.0802-0.309-0.5912-0.603-0.5109-0.294-0.9289-0.771-0.9289-1.06s-0.1334-0.526-0.2965-0.526c-0.5442 0-1.0285 0.925-0.8543 1.631 0.1589 0.644 1.1868 0.858 2.6709 0.558zm-47.124-0.756c0-0.197-0.161-0.358-0.3577-0.358-0.1968 0-0.2638 0.161-0.149 0.358s0.2758 0.358 0.3578 0.358c0.0819 0 0.1489-0.161 0.1489-0.358zm4.8982 0c-0.1148-0.197-0.4278-0.358-0.6955-0.358-0.2678 0-0.4868 0.161-0.4868 0.358s0.313 0.358 0.6955 0.358c0.3826 0 0.6016-0.161 0.4868-0.358zm10.979-0.716c0-0.394-0.152-0.717-0.3378-0.717-0.1857 0-0.3378 0.323-0.3378 0.717s0.1521 0.716 0.3378 0.716c0.1858 0 0.3378-0.322 0.3378-0.716zm3.0403 0.358c0-0.197-0.304-0.358-0.6756-0.358s-0.6756 0.161-0.6756 0.358 0.304 0.358 0.6756 0.358 0.6756-0.161 0.6756-0.358zm15.007-0.402c-0.2189-0.375-0.8192-0.074-0.8192 0.412 0 0.179 0.2272 0.233 0.5048 0.12s0.4191-0.352 0.3144-0.532zm5.2613 0.342c0-0.23-0.096-0.316-0.2133-0.192-0.1173 0.125-0.4973 0.065-0.8445-0.132-0.3881-0.22-0.6312-0.226-0.6312-0.018 0 0.36 0.5607 0.684 1.2668 0.731 0.2322 0.016 0.4222-0.16 0.4222-0.39v1e-3zm8.4452 0.042c-1.2407-0.893-1.689-1.078-1.689-0.7 0 0.211 0.342 0.528 0.76 0.707 1.0364 0.441 1.5467 0.438 0.929-6e-3v-1e-3zm-41.55-0.825c0-0.243 0.4941-0.596 1.0979-0.784 0.7458-0.233 1.0679-0.536 1.0043-0.944-0.0815-0.522 0.0646-0.554 1.1286-0.242 0.6722 0.196 1.4178 0.278 1.657 0.18 0.2392-0.097 0.6054 5e-3 0.8138 0.225 0.2801 0.297 0.379 0.21 0.379-0.336 0-0.6-0.1628-0.705-0.8705-0.562-0.5523 0.112-1.2029-0.084-1.78-0.536-1.2621-0.99-2.2967-1.281-3.001-0.847-0.3926 0.243-0.4406 0.373-0.1396 0.38 0.2757 6e-3 0.3776 0.235 0.2555 0.572-0.158 0.436-0.0465 0.508 0.5039 0.323 0.6179-0.208 0.6761-0.133 0.4627 0.603-0.1344 0.462-0.3087 0.916-0.3874 1.007-0.2945 0.343-1.2845-0.623-1.4636-1.427-0.1022-0.459-0.3802-0.903-0.6178-0.987-0.3294-0.117-0.312 0.151 0.0735 1.129 0.2984 0.757 0.3753 1.368 0.1878 1.49-0.1746 0.115-0.3175 0.043-0.3175-0.16 0-0.202-0.2157-0.28-0.4794-0.173-0.2637 0.108-0.8765-0.08-1.3618-0.417-0.4853-0.338-0.9752-0.515-1.0888-0.394-0.2795 0.296 0.5607 1.331 1.0327 1.272 1.1671-0.146 1.8746 0.114 2.0678 0.76 0.2233 0.745 0.8429 0.649 0.8429-0.132zm2.5336 0.126c0.1148-0.197 0.0478-0.358-0.149-0.358-0.1967 0-0.3577 0.162-0.3577 0.358 0 0.197 0.067 0.359 0.149 0.359 0.0819 0 0.2429-0.162 0.3577-0.359zm34.963-0.179c0-0.295-0.1706-0.537-0.3791-0.537-0.262 0-0.2492-0.166 0.0413-0.537 0.5061-0.646 0.1535-0.717-0.4745-0.095-0.3358 0.332-0.3539 0.598-0.0734 1.074 0.4558 0.774 0.8857 0.82 0.8857 0.095zm5.0671 0.215c0-0.362-2.3742-1.935-2.5843-1.713-0.1621 0.172 0.6953 0.952 1.6914 1.539 0.9425 0.555 0.8929 0.545 0.8929 0.174zm-13.396-0.588c-0.11-0.304-0.2725-0.476-0.361-0.382s-0.0608 0.343 0.0617 0.553c0.3331 0.571 0.5277 0.46 0.2993-0.171zm-38.626-0.343c0-0.295-0.1473-0.537-0.3273-0.537-0.1799 0-0.2397 0.242-0.1327 0.537 0.1069 0.296 0.2542 0.537 0.3272 0.537s0.1328-0.241 0.1328-0.537zm17.433-0.368c0.0851-0.615-0.7326-0.713-1.073-0.129-0.1276 0.219-0.027 0.533 0.2237 0.697 0.5188 0.34 0.7445 0.189 0.8493-0.568zm18.478 0.703c0.2963-0.12 0.428-0.482 0.3261-0.895-0.1328-0.538 4e-3 -0.693 0.6116-0.693 0.5927 0 0.6877-0.101 0.3915-0.415s-0.5101-0.31-0.882 0.018c-0.3339 0.294-0.561 0.312-0.7099 0.057-0.1204-0.207-0.3572-0.376-0.5262-0.376-0.3793 0-0.0046 1.157 0.4915 1.517 0.2436 0.176 0.224 0.265-0.0599 0.268-0.2322 2e-3 -0.4222 0.167-0.4222 0.364 0 0.413 0.0984 0.433 0.7795 0.156v-1e-3zm-20.853-0.426c-0.3086-0.328-2.5599-0.398-2.5599-0.081 0 0.169 0.6154 0.297 1.3675 0.286 0.7521-0.012 1.2887-0.103 1.1924-0.205zm5.6454-0.446c-0.2005-0.813-1.1113-0.984-1.1113-0.209 0 0.452 0.4323 0.816 1.0662 0.897 0.1219 0.016 0.1422-0.294 0.0451-0.688zm20.846 0.326c0-0.131-0.2314-0.442-0.5143-0.691-0.3095-0.272-0.4311-0.731-0.3052-1.151 0.16-0.534 0.069-0.67-0.3868-0.576-0.6858 0.141-0.9129 1.654-0.3469 2.311 0.3841 0.446 1.5532 0.526 1.5532 0.107zm6.6647 0.174c-0.1123-0.119-0.4036-0.132-0.6475-0.028-0.2695 0.114-0.1894 0.199 0.2041 0.216 0.3561 0.016 0.5556-0.069 0.4434-0.188zm-44.97-0.708c-0.1128-0.312-0.2051-0.634-0.2051-0.717 0-0.082-0.1378-0.149-0.3062-0.149s-0.2266 0.322-0.1295 0.716c0.0972 0.394 0.3272 0.716 0.5113 0.716 0.184 0 0.2422-0.255 0.1295-0.566zm-10.677-0.274c-0.9272-0.518-1.2003-0.486-0.8584 0.1 0.1225 0.21 0.5557 0.38 0.9628 0.377 0.7098-6e-3 0.7055-0.025-0.1044-0.477zm8.0528-1.126c-0.0629-0.066-0.5535-0.03-1.0902 0.079l-0.976 0.199 0.976 0.428c0.8022 0.352 0.9962 0.338 1.0902-0.079 0.0629-0.279 0.0629-0.561 0-0.627zm21.245 0.422c-0.2262-0.719-0.9221-0.666-0.9221 0.071 0 0.515 0.1558 0.671 0.521 0.523 0.2865-0.117 0.467-0.384 0.4011-0.594zm2.3338 0.291c-0.1069-0.296-0.0599-0.537 0.1046-0.537s0.3757 0.201 0.4695 0.447c0.1076 0.283 0.1802 0.231 0.197-0.141 0.0286-0.631-0.8453-1.158-1.3605-0.82-0.1721 0.113-0.2149 0.373-0.0952 0.578 0.1198 0.206 0.0082 0.514-0.2478 0.686-0.3419 0.23-0.2541 0.314 0.3307 0.318 0.57 4e-3 0.7409-0.147 0.6017-0.531zm-18.778-0.896c0.6389 0 0.6375-0.022-0.0449-0.746-0.835-0.885-1.055-0.733-1.1694 0.809-0.0658 0.887-0.0116 1.012 0.235 0.545 0.1763-0.334 0.617-0.608 0.9793-0.608zm2.6857 0.717c0-0.197-0.161-0.358-0.3577-0.358-0.1968 0-0.2638 0.161-0.149 0.358s0.2758 0.358 0.3578 0.358c0.0819 0 0.1489-0.161 0.1489-0.358zm18.579 0.012c0-0.19-0.304-0.518-0.6756-0.729-0.7682-0.436-0.8747-0.21-0.2534 0.538 0.4931 0.594 0.929 0.683 0.929 0.191zm7.0165-0.08c-0.0735-0.234-0.3143-0.489-0.5351-0.567-0.2468-0.087-0.3223 0.076-0.1961 0.425 0.2357 0.651 0.9339 0.786 0.7312 0.142zm8.8604 0.067c0-0.197-0.1609-0.358-0.3577-0.358s-0.2638 0.161-0.149 0.358c0.1149 0.197 0.2758 0.358 0.3578 0.358 0.0819 0 0.1489-0.161 0.1489-0.358zm5.3266-0.358c-0.4263-0.724-0.9351-0.958-0.9351-0.43 0 0.372 0.7319 1.146 1.0839 1.146 0.1502 0 0.0832-0.322-0.1489-0.716h1e-4zm-56.335-0.379c0-0.185-0.152-0.337-0.3378-0.337s-0.3378 0.251-0.3378 0.558c0 0.308 0.152 0.459 0.3378 0.338 0.1858-0.122 0.3378-0.373 0.3378-0.559zm28.788-0.523c0.0518-0.39-0.0198-0.749-0.1592-0.799-0.1393-0.049-0.2397 0.016-0.2231 0.147 0.049 0.382-1.0733 0.928-1.3224 0.643-0.1254-0.144-0.038-0.333 0.1943-0.421 0.6834-0.259 0.4834-0.816-0.2928-0.816-0.5766 0-0.6756 0.156-0.5113 0.805 0.112 0.444 0.2058 0.916 0.2083 1.05 6e-3 0.319 1.4541 0.568 1.7684 0.304 0.134-0.113 0.286-0.524 0.3378-0.914v1e-3zm25.165 0.316c0.4641-0.531 0.6013-0.853 0.3132-0.736-0.312 0.127-0.5715-0.029-0.6634-0.399-0.1025-0.412-0.1634-0.336-0.19 0.238-0.0276 0.594-0.1889 0.783-0.5459 0.638-0.5079-0.207-0.7155 0.505-0.2815 0.965 0.3513 0.372 0.4855 0.303 1.3676-0.706zm-59.55 0.269c0.1018-0.175-0.1173-0.401-0.4868-0.504-0.6608-0.183-0.8885 0.114-0.4466 0.583 0.313 0.331 0.7138 0.298 0.9334-0.079zm7.9622-0.437c0-0.176-0.2027-0.32-0.4504-0.32s-0.4504 0.226-0.4504 0.503 0.2027 0.421 0.4504 0.32 0.4504-0.327 0.4504-0.503zm22.633 0.196c0-0.307-0.152-0.459-0.3378-0.337s-0.3378 0.373-0.3378 0.558c0 0.186 0.152 0.337 0.3378 0.337s0.3378-0.251 0.3378-0.558zm1.0134 0.2c0-0.197-0.152-0.358-0.3378-0.358s-0.3378 0.161-0.3378 0.358 0.152 0.358 0.3378 0.358 0.3378-0.161 0.3378-0.358zm10.923 0.09c0.0844-0.148-0.0431-0.461-0.2834-0.696-0.3443-0.337-0.4731-0.281-0.6085 0.268-0.1667 0.676 0.5531 1.021 0.8919 0.428zm-31.416-0.842c0.1551-0.122-0.0156-0.305-0.3794-0.406-0.5206-0.144-0.6254-0.038-0.4924 0.502 0.0929 0.377 0.2637 0.559 0.3794 0.406 0.1158-0.153 0.3373-0.379 0.4924-0.502zm18.461 0.484c-0.0094-0.49-0.6305-1.326-0.8289-1.116-0.2661 0.283 0.1578 1.384 0.5324 1.384 0.1659 0 0.2993-0.12 0.2965-0.268zm-15.772-0.974c-0.5777-0.841-1.1137-1.168-1.1137-0.68 0 0.234 1.3506 1.564 1.5876 1.564 0.0732 0-0.1401-0.398-0.4739-0.884zm3.6156 0.526c0-0.449-0.3585-0.449-1.0134 0-0.4097 0.281-0.3613 0.348 0.2534 0.353 0.418 4e-3 0.76-0.156 0.76-0.353zm4.6314-0.358c0.0972-0.394 0.349-0.726 0.5596-0.739 0.2105-0.012 0.0274-0.174-0.407-0.358-0.4381-0.186-1.0156-0.202-1.2968-0.035-0.4492 0.266-0.4476 0.364 0.0136 0.853 0.2863 0.303 0.4266 0.652 0.3115 0.773-0.115 0.122-0.0176 0.222 0.2166 0.222s0.5053-0.322 0.6025-0.716zm16.082-0.853c0.0899-0.249-0.1253-0.643-0.4784-0.877-0.353-0.234-0.6419-0.746-0.6419-1.138 0-0.847 0.4298-0.922 1.0134-0.176 0.348 0.444 0.3113 0.542-0.2119 0.565-0.4634 0.021-0.5012 0.084-0.1413 0.234 0.8706 0.363 1.2674 0.953 1.1419 1.697-0.0674 0.4 0.0876 0.163 0.3444-0.526 0.2569-0.69 0.4014-1.376 0.3212-1.525s0.0918-0.368 0.3823-0.486c0.9151-0.372 0.5736-0.84-0.5698-0.781-1.3427 0.07-2.9558-0.714-2.9558-1.437 0-0.357-0.2716-0.221-0.8284 0.416-0.9162 1.048-1.7242 1.267-1.4032 0.381 0.1303-0.36 0.0509-0.513-0.2173-0.418-0.8651 0.305-0.6595 1.312 0.3152 1.542 1.9092 0.452 2.0829 0.564 2.4052 1.544 0.2577 0.783 0.2148 1.073-0.1998 1.35-0.2912 0.195-0.4177 0.542-0.2822 0.775 0.2779 0.477 1.7172-0.341 2.0064-1.14zm7.6627 1.17c0-0.216-0.228-0.301-0.5067-0.188-0.2787 0.114-0.5067 0.04-0.5067-0.164 0-0.208-0.2968-0.272-0.6756-0.144-0.3876 0.13-0.6756 0.064-0.6756-0.155 0-0.21-0.2281-0.382-0.5068-0.382-0.2786 0-0.5067 0.161-0.5067 0.358s0.237 0.358 0.5267 0.358c0.2896 0 0.4479 0.135 0.3517 0.3-0.0961 0.165 0.4269 0.325 1.1624 0.356 0.779 0.032 1.3373-0.109 1.3373-0.339zm11.125 0.026c-0.6102-0.4-0.01-1.119 0.7271-0.871 0.4992 0.168 0.6472 0.044 0.6472-0.543 0-0.419 0.152-0.662 0.3378-0.541 0.1858 0.122 0.4807 0.128 0.6554 0.014 0.431-0.282-0.2636-2.341-0.7898-2.341-0.2234 0-0.5832-0.187-0.7997-0.417-0.2996-0.318-0.2553-0.529 0.1858-0.884 0.509-0.41 0.5139-0.468 0.0406-0.478-0.2964-6e-3 -0.8093 0.306-1.1399 0.693s-0.9237 0.669-1.3181 0.627c-0.514-0.056-0.7478 0.15-0.826 0.728-0.1163 0.86-0.5519 1.056-0.9247 0.416-0.1599-0.274-0.3405-0.261-0.6111 0.045-0.288 0.326-0.2779 0.476 0.0402 0.599 0.2334 0.091 0.3385 0.312 0.2334 0.493-0.105 0.18 0.1311 0.327 0.5246 0.327s0.628-0.15 0.5211-0.333c-0.2475-0.425 0.3838-0.855 0.8277-0.564 0.2702 0.177-1.1482 1.972-1.5584 1.972-0.061 0-0.3467-0.484-0.6349-1.075-0.2883-0.591-0.7482-1.074-1.0221-1.074s-0.4981-0.311-0.4981-0.691-0.2375-0.942-0.5279-1.25c-0.4786-0.508-0.4748-0.635 0.0416-1.369 0.343-0.487 0.4938-0.57 0.3791-0.208-0.2326 0.733 0.5297 1.459 1.6686 1.587 1.0508 0.119 0.9068-0.704-0.1521-0.87-0.803-0.125-1.0519-1.604-0.3476-2.066 0.2468-0.161 0.0639-0.431-0.5067-0.748-0.491-0.273-0.8928-0.721-0.8928-0.996 0-0.516-0.8837-1.627-1.2909-1.624-0.126 0-0.2579 0.587-0.2929 1.303-0.0476 0.973 0.0333 1.198 0.3209 0.893 0.612-0.648 0.9818-0.473 0.5992 0.285-0.4845 0.96-0.4467 1.058 0.3259 0.844 0.4164-0.116 0.6756-0.01 0.6756 0.272 0 0.253-0.1 0.354-0.2222 0.224-0.1223-0.13-0.4284-0.054-0.6803 0.167-0.3558 0.313-0.6837 0.153-1.4697-0.719-0.9233-1.024-1.6814-1.437-1.6814-0.915 0 0.114 0.608 0.845 1.3512 1.625 1.4958 1.57 1.5821 1.749 0.8445 1.749-0.2787 0-0.5067-0.168-0.5067-0.374 0-0.205-0.19-0.33-0.4223-0.276-0.2322 0.053-1.1401-0.274-2.0176-0.728-1.4447-0.747-2.2894-0.792-2.2894-0.121 0 0.137 0.418 0.422 0.929 0.633 1.9999 0.826 3.3225 1.288 3.9692 1.387 0.3716 0.057 0.7896 0.124 0.929 0.149 0.1393 0.026 0.2533 0.207 0.2533 0.404 0 0.476-1.5889 0.462-1.8679-0.018-0.1203-0.206-0.4713-0.349-0.78-0.317-1.1042 0.115-1.7026-0.031-2.1756-0.533-0.5144-0.545-0.9807-0.675-2.1888-0.608-0.6762 0.038-0.715 0.124-0.341 0.759 0.5203 0.883 1.271 0.936 1.278 0.09 0.0044-0.536 0.0527-0.549 0.3326-0.09 0.4642 0.762 0.415 1.074-0.1689 1.074-0.2787 0-0.5067 0.158-0.5067 0.35 0 0.309 0.7348 0.267 2.7866-0.16 0.3249-0.067 0.6774 0.026 0.7834 0.208 0.1059 0.182 0.3341 0.238 0.507 0.124 0.173-0.113 0.3145-0.035 0.3145 0.174 0 0.208-0.266 0.381-0.5912 0.384-0.4503 4e-3 -0.4843 0.078-0.1429 0.307 0.2465 0.166 0.4185 0.526 0.3822 0.8-0.1932 1.462-9e-3 1.744 0.9003 1.378 0.705-0.284 0.9706-0.235 1.2987 0.241 0.4651 0.674 2.2066 0.435 2.2066-0.303 0-0.321-0.0974-0.319-0.4054 6e-3 -0.6192 0.657-1.0451 0.513-0.848-0.286 0.157-0.636 0.0104-0.716-1.3118-0.716-0.8187 0-1.4885-0.162-1.4885-0.358 0-0.198 0.2863-0.359 0.6362-0.359 0.3722 0 0.7235-0.334 0.8467-0.805l0.2104-0.806 0.6029 0.823c0.4271 0.583 0.7874 0.748 1.2356 0.566 0.4291-0.175 0.5568-0.127 0.3969 0.147-0.3387 0.581 0.5149 1.866 1.2396 1.866 0.3631 0 0.5198 0.162 0.3831 0.396-0.1555 0.267 0.0036 0.318 0.4868 0.155 0.4055-0.136 0.7179-0.085 0.7179 0.117 0 0.197 0.4652 0.345 1.0337 0.327 0.5886-0.018 0.8609-0.144 0.6324-0.294l-1e-4 1e-3zm-2.0038-1.071c0-0.19 0.228-0.346 0.5067-0.346s0.5067 0.063 0.5067 0.14c0 0.078-0.228 0.234-0.5067 0.347-0.2787 0.114-0.5067 0.05-0.5067-0.141zm1.2879-1.665c0.2439-0.104 0.5352-0.091 0.6475 0.028 0.1122 0.119-0.0873 0.203-0.4434 0.188-0.3935-0.018-0.4736-0.102-0.2041-0.217v1e-3zm-0.2745-1.167c0-0.612 0.4928-0.675 1.5202-0.195l1.0134 0.474-1.2668 0.029c-0.6967 0.016-1.2668-0.123-1.2668-0.308zm-57.427 3.16c0-0.197-0.152-0.259-0.3378-0.137s-0.3378 0.382-0.3378 0.579 0.152 0.259 0.3378 0.137 0.3378-0.382 0.3378-0.579zm5.8047-0.036c-0.5144-0.545-0.507-0.905 0.0225-1.097 0.2323-0.084 0.0426-0.083-0.4216 2e-3 -1.0233 0.189-1.3385 0.495-0.7419 0.72 0.2426 0.092 0.6227 0.376 0.8446 0.631 0.2218 0.256 0.4692 0.398 0.5498 0.316 0.0805-0.082-0.0336-0.34-0.2534-0.573v1e-3zm11.761-0.839c0-0.677-0.152-1.232-0.3378-1.232s-0.3378 0.172-0.3378 0.382c0 0.22-0.2881 0.286-0.6756 0.155-0.4432-0.149-0.6739-0.065-0.6705 0.245 7e-3 0.63 0.6583 1.706 0.6653 1.098 0.0028-0.246 0.1572-0.447 0.343-0.447s0.3378 0.331 0.3378 0.737 0.152 0.638 0.3378 0.516 0.3378-0.776 0.3378-1.454zm24.526 0.502c-0.6136-0.929-0.7278-0.624-0.176 0.469 0.2008 0.398 0.4443 0.639 0.5411 0.537 0.0968-0.103-0.0675-0.555-0.3651-1.006zm-28.734 0.081c-0.1225-0.211-0.3717-0.382-0.5539-0.382-0.1821 0-0.1351 0.225 0.1044 0.501 0.485 0.557 0.7961 0.475 0.4495-0.12v1e-3zm15.939-0.302c0.2913 0.054 0.595-0.143 0.6749-0.439 0.0864-0.319 0.0322-0.392-0.1339-0.179-0.1535 0.197-0.6816 0.387-1.1735 0.421-0.7031 0.049-0.9284-0.125-1.0527-0.815-0.1357-0.752-0.059-0.843 0.5409-0.642 0.6714 0.226 0.6751 0.21 0.0954-0.404-0.332-0.352-0.7455-1.036-0.9188-1.519-0.2245-0.626-0.435-0.779-0.7318-0.534-0.9897 0.82-2.4819 1.088-3.4806 0.624-1.3448-0.623-7.3453-6.141-7.6648-7.048-0.2099-0.596-0.3477-0.649-0.7557-0.29-0.2745 0.242-0.7242 0.348-0.9993 0.236s-0.5802-0.067-0.6779 0.101c-0.2177 0.373 0.7734 0.819 1.2 0.539 0.169-0.111 0.3073 0.121 0.3073 0.515s0.1545 0.817 0.3434 0.941c0.1888 0.124 0.2543 0.378 0.1455 0.564-0.1087 0.187-0.3599 0.233-0.5581 0.103-0.3217-0.21-0.6518-0.277-2.211-0.446-0.2322-0.025-0.4222-0.217-0.4222-0.428 0-0.233 0.2956-0.282 0.7574-0.127 0.6733 0.226 0.7062 0.189 0.2964-0.334-0.6393-0.817-2.0672-0.778-2.0672 0.056 0 0.895 0.6596 1.504 1.629 1.504 0.6945 0 0.7537 0.082 0.3915 0.545-0.2348 0.3-0.6906 0.457-1.0129 0.348-0.3923-0.132-0.6428 0.033-0.7576 0.498-0.122 0.495 0.0369 0.755 0.5493 0.901 1.2158 0.346 1.5094 0.244 1.3353-0.461-0.204-0.828 0.5332-1.396 0.9293-0.716 0.2278 0.391 0.3714 0.4 0.7054 0.046 0.5783-0.613 1.0734-0.559 0.8378 0.092-0.1069 0.296-0.0472 0.537 0.1328 0.537 0.1799 0 0.3272 0.242 0.3272 0.538 0 0.295 0.228 0.537 0.5067 0.537s0.5067 0.224 0.5067 0.499c0 0.274 0.2376 0.595 0.5281 0.713 0.2905 0.119 0.4329 0.379 0.3164 0.578-0.1164 0.2 0.0259 0.46 0.3164 0.579 0.2905 0.118 0.5281 0.419 0.5281 0.669 0 0.251 0.2376 0.664 0.528 0.92 0.4606 0.405 0.5009 0.35 0.3161-0.43-0.1409-0.596-0.0349-1.051 0.3165-1.36 0.4356-0.384 0.5355-0.379 0.5685 0.026 0.022 0.271 0.0112 0.653-0.0242 0.85-0.0352 0.197 0.1292 0.157 0.3654-0.09 0.634-0.66 0.949-0.545 0.7969 0.292-0.099 0.545 0.0172 0.707 0.4416 0.616 0.3458-0.075 0.5653-0.442 0.5492-0.919-0.03-0.887-0.0477-0.871 0.6375-0.592 0.2962 0.12 0.4279 0.482 0.326 0.895-0.1272 0.516 3e-3 0.693 0.5079 0.693 0.3734 0 0.7727 0.259 0.8873 0.576 0.1522 0.421 0.5269 0.537 1.3874 0.43 0.6484-0.08 1.1789-0.029 1.1789 0.114 0 0.478 1.1807 0.519 1.2932 0.045 0.061-0.257 0.3493-0.423 0.6406-0.368zm-3.5553-0.51c-0.6327-0.671-0.4813-0.963 0.4451-0.858 0.4677 0.053 0.8477 0.203 0.8445 0.334-0.0032 0.13-0.0058 0.398-0.0058 0.595 0 0.494-0.7918 0.45-1.2837-0.071h-1e-4zm-1.7566-1.421c0-0.23 0.099-0.313 0.22-0.184 0.121 0.128 0.4125-0.046 0.648-0.388 0.4901-0.71 1.0044-0.391 0.7045 0.437-0.232 0.641-1.5725 0.756-1.5725 0.135zm2.6046-0.656c-0.0972-0.394-0.0389-0.717 0.1295-0.717s0.3062 0.323 0.3062 0.717-0.0583 0.716-0.1295 0.716-0.209-0.322-0.3062-0.716zm-7.8126 0.048c-0.1455-0.25-0.1733-0.551-0.0618-0.669 0.3023-0.321 0.632 0.151 0.4687 0.67-0.1145 0.364-0.194 0.364-0.4069-1e-3zm1.9989-0.765c-0.1149-0.197-0.0478-0.358 0.1489-0.358 0.1968 0 0.3578 0.161 0.3578 0.358s-0.0671 0.358-0.149 0.358-0.2429-0.161-0.3577-0.358zm-3.6704-1.641c-0.9372-0.874-1.0378-1.739-0.1071-0.92 0.2539 0.224 0.5632 0.299 0.6874 0.167s0.5214 0.097 0.8828 0.508c0.5657 0.644 0.5848 0.777 0.1377 0.959-0.6461 0.263-0.4681 0.342-1.6009-0.714h1e-4zm45.439 5.213c-0.7846-0.693-1.4005-0.663-1.4005 0.069 0 0.206 0.2231 0.285 0.4959 0.174 0.2727-0.111 0.5857-0.048 0.6955 0.14 0.1099 0.189 0.3807 0.338 0.602 0.331 0.2213-6e-3 0.0445-0.328-0.3929-0.714zm-71.452-0.601c-0.27844-0.295-1.2258 0.178-1.2258 0.612 0 0.265 0.21601 0.259 0.70454-0.018 0.3875-0.22 0.62207-0.487 0.52128-0.594zm17.354 0.611c0-0.197-0.161-0.358-0.3577-0.358-0.1968 0-0.2638 0.161-0.149 0.358s0.2758 0.358 0.3577 0.358c0.082 0 0.149-0.161 0.149-0.358zm11.485 0c0-0.197-0.152-0.358-0.3378-0.358s-0.3378 0.161-0.3378 0.358 0.1521 0.358 0.3378 0.358c0.1858 0 0.3378-0.161 0.3378-0.358zm12.837 0c0.5592-0.383 0.5549-0.386-0.7399-0.488-0.704-0.055-0.8279 0.032-0.5498 0.387 0.4269 0.545 0.6187 0.56 1.2897 0.101zm11.485-1.272c0-0.137-0.204-0.069-0.4533 0.15-0.2493 0.22-0.5534 0.293-0.6756 0.164-0.1223-0.13-0.2223-0.075-0.2223 0.122 0 0.662 0.4145 0.806 0.8848 0.307 0.2565-0.272 0.4664-0.606 0.4664-0.743zm3.6484 0.842c0.6533-0.693 0.4693-1.33-0.4549-1.576-1.083-0.288-1.3036-0.054-1.0318 1.094 0.2319 0.98 0.8333 1.175 1.4867 0.482zm-46.888-0.086c0-0.087-0.152-0.258-0.3378-0.38-0.1857-0.121-0.3378-0.05-0.3378 0.158 0 0.209 0.1521 0.38 0.3378 0.38 0.1858 0 0.3378-0.071 0.3378-0.158zm19.931-0.38c0-0.295-0.152-0.537-0.3378-0.537s-0.3379 0.242-0.3379 0.537c0 0.296 0.1521 0.538 0.3379 0.538s0.3378-0.242 0.3378-0.538zm-28.038-0.179c0-0.197-0.15202-0.358-0.33781-0.358-0.1858 0-0.3378 0.162-0.3378 0.358 0 0.197 0.152 0.359 0.3378 0.359 0.18578 0 0.33781-0.162 0.33781-0.359zm3.7159 0.201c0-0.087-0.15202-0.258-0.3378-0.38-0.18578-0.121-0.3378-0.05-0.3378 0.158 0 0.209 0.15201 0.38 0.3378 0.38 0.1858 0 0.3378-0.071 0.3378-0.158zm7.4318-0.201c0-0.197-0.237-0.358-0.5266-0.358-0.2897 0-0.4327-0.161-0.3179-0.358s0.0478-0.358-0.149-0.358c-0.5009 0-0.4483 0.976 0.0645 1.195 0.6829 0.293 0.929 0.26 0.929-0.121zm31.078-0.179c0-0.295-0.1431-0.537-0.3179-0.537-0.426 0-0.7311 0.56-0.4612 0.846 0.3805 0.403 0.7791 0.245 0.7791-0.309zm-32.767 0.044c0-0.074-0.228-0.336-0.5067-0.581-0.415-0.365-0.5067-0.34-0.5067 0.135 0 0.32 0.228 0.581 0.5067 0.581s0.5067-0.06 0.5067-0.135zm10.134-0.391c0-0.32-0.1981-0.445-0.5067-0.319-0.3209 0.13-0.5067-4e-3 -0.5067-0.37 0-0.316-0.1587-0.575-0.3527-0.575-0.4274 0-0.2883 1.149 0.1838 1.516 0.5626 0.439 1.1823 0.307 1.1823-0.252zm2.3646-0.041c0-0.311-0.1805-0.503-0.4011-0.425-0.6264 0.222-0.7303 0.993-0.1337 0.993 0.2941 0 0.5348-0.256 0.5348-0.568zm19.593-0.687c0-0.506-1.2231-0.329-1.5453 0.223-0.3302 0.567-1.4917 0.365-1.2793-0.222 0.2537-0.701-0.0353-0.678-1.1469 0.09l-0.9076 0.626 1.5106 0.188c1.7371 0.217 3.3685-0.222 3.3685-0.905zm8.2763 0.538c0.1148-0.197 0.0478-0.358-0.1489-0.358-0.1968 0-0.3578 0.161-0.3578 0.358s0.067 0.358 0.149 0.358c0.0819 0 0.2429-0.161 0.3577-0.358zm-47.462-0.158c0-0.087-0.15202-0.257-0.33781-0.379-0.1858-0.122-0.33781-0.051-0.33781 0.158s0.15203 0.379 0.33781 0.379c0.18579 0 0.33781-0.071 0.33781-0.158zm14.667-0.684c-0.1168-0.322-0.3557-0.492-0.5311-0.377-0.1901 0.124-0.1563 0.416 0.0836 0.723 0.4941 0.631 0.734 0.446 0.4475-0.346zm5.9339 0.574c-0.0122-0.637-0.59-1.234-0.8171-0.844-0.1271 0.218-0.1371 0.557-0.0223 0.754 0.2436 0.418 0.8469 0.482 0.8394 0.09zm29.316-0.367c-0.1953-0.251-0.6743-0.363-1.0668-0.25-0.6575 0.19-0.6673 0.168-0.1282-0.294 0.548-0.47 0.5375-0.545-0.1689-1.219-0.8885-0.847-1.8725-1.267-2.3063-0.982-0.4607 0.302 0.6038 1.284 1.2572 1.159 0.3101-0.058 0.6302 0.095 0.7115 0.341 0.0942 0.286-0.0461 0.369-0.3873 0.231-0.6385-0.26-0.6751-0.012-0.1336 0.908 0.2751 0.467 0.7435 0.662 1.4891 0.621 0.8377-0.045 1.0063-0.164 0.7333-0.515zm-48.182-1.25c-0.27928-0.296-0.38366-0.298-0.38366-6e-3 0 0.22-0.10549 0.696-0.23444 1.056-0.22647 0.634-0.2134 0.634 0.38365 6e-3 0.46134-0.485 0.52074-0.753 0.23445-1.056zm8.7371 0.969c0-0.307-0.1544-0.457-0.3433-0.334-0.1888 0.124-0.2558 0.375-0.1489 0.559 0.2895 0.496 0.4922 0.404 0.4922-0.225zm11.486 0.042c0-0.378-0.6483-0.537-0.8411-0.206-0.1167 0.2 0.0248 0.364 0.3144 0.364 0.2897 0 0.5267-0.071 0.5267-0.158zm12.161-0.179c0-0.185-0.152-0.437-0.3378-0.558-0.1858-0.122-0.3378 0.029-0.3378 0.337 0 0.307 0.152 0.558 0.3378 0.558s0.3378-0.152 0.3378-0.337zm-30.065-0.379c0-0.197-0.161-0.358-0.3577-0.358-0.1968 0-0.2638 0.161-0.149 0.358s0.2758 0.358 0.3578 0.358c0.0819 0 0.1489-0.161 0.1489-0.358zm9.4586 0c0-0.197-0.067-0.358-0.149-0.358-0.0819 0-0.2429 0.161-0.3577 0.358s-0.0478 0.358 0.149 0.358c0.1967 0 0.3577-0.161 0.3577-0.358zm21.067-0.534c-0.1104-0.305 0.0391-0.629 0.3484-0.755 0.8204-0.334 0.6487-0.771-0.3028-0.771-0.4644 0-0.8445 0.141-0.8445 0.314 0 0.172 0.161 0.313 0.3578 0.313 0.1967 0 0.2638 0.161 0.1489 0.358-0.1148 0.197-0.1148 0.52 0 0.717 0.3173 0.544 0.5107 0.427 0.2922-0.176zm3.4566 0.204c0.3619 0.319 0.5935 0.312 0.9805-0.029 0.8307-0.73 0.5881-0.957-0.9289-0.866-0.7897 0.047-1.7017 0.1-2.0269 0.118-0.3251 0.018-0.5911 0.183-0.5911 0.366 0 0.414 1.8134 0.669 1.9752 0.278 0.0645-0.156 0.3305-0.096 0.5912 0.133zm-21.484-0.365c0-0.543-0.629-0.802-1.3543-0.558-1.0164 0.342-0.8059 0.895 0.3409 0.895 0.5573 0 1.0134-0.152 1.0134-0.337zm16.89-0.38c0-0.197-0.067-0.358-0.1489-0.358-0.082 0-0.243 0.161-0.3578 0.358s-0.0478 0.358 0.149 0.358c0.1967 0 0.3577-0.161 0.3577-0.358zm10.482-0.524c-0.3465-0.443-0.3245-0.582 0.1208-0.763 0.2996-0.122 0.5448-0.442 0.5448-0.712 0-0.381-0.1973-0.41-0.8914-0.131-1.0771 0.434-1.1707 0.355-1.2077-1.024-0.0325-1.212-0.6875-1.691-2.7147-1.988-1.2465-0.182-1.7654 0.306-0.7601 0.715 0.6506 0.265 0.6579 0.846 0.0106 0.846-0.3058 0-0.4202 0.209-0.2983 0.546 0.1554 0.43 0.3007 0.456 0.6793 0.123 0.3648-0.321 0.5764-0.323 0.8726-0.01 0.2151 0.228 0.7711 0.414 1.2356 0.414 0.6568 0 0.7544 0.096 0.4392 0.43-0.5698 0.604-0.5047 1.12 0.1099 0.87 0.3071-0.125 0.8085 0.148 1.2411 0.675 0.7646 0.933 1.3478 0.94 0.6183 8e-3v1e-3zm-3.4726-2.839c-0.3251-0.262-0.5911-0.599-0.5911-0.749s0.2144-0.084 0.4766 0.146c0.3258 0.287 0.5459 0.301 0.6955 0.044 0.3762-0.645 0.8-0.41 0.6148 0.341-0.2056 0.833-0.3894 0.867-1.1958 0.218zm-31.281 2.826c0-0.187-0.1634-0.398-0.3632-0.468-0.1997-0.071-0.3631 0.14-0.3631 0.468s0.1634 0.539 0.3631 0.469c0.1998-0.071 0.3632-0.282 0.3632-0.469zm53.784-0.247c1.1618 0.252 0.3808-0.796-0.8242-1.107-0.6364-0.163-1.4991-0.388-1.9172-0.498-0.4738-0.125-0.76-0.038-0.76 0.232 0 0.239 0.3126 0.52 0.6947 0.626 0.3936 0.11 0.6213 0.396 0.5254 0.661-0.2153 0.595 0.8639 0.882 1.3134 0.349 0.1858-0.22 0.6214-0.339 0.9679-0.263zm-21.94-0.418c-0.1962-0.542-0.8163-0.841-0.8163-0.394 0 0.255 0.8176 1.193 0.9369 1.074 0.0508-0.05-0.0034-0.356-0.1206-0.68zm-29.192 0.128c0-0.197-0.161-0.358-0.3578-0.358-0.1967 0-0.2638 0.161-0.1489 0.358 0.1148 0.197 0.2758 0.358 0.3577 0.358 0.082 0 0.149-0.161 0.149-0.358zm7.7695 0c0-0.197-0.067-0.358-0.1489-0.358s-0.2429 0.161-0.3578 0.358c-0.1148 0.197-0.0478 0.358 0.149 0.358s0.3577-0.161 0.3577-0.358zm18.917 0c0-0.197-0.152-0.358-0.3378-0.358s-0.3378 0.161-0.3378 0.358 0.152 0.358 0.3378 0.358 0.3378-0.161 0.3378-0.358zm-23.463-2.059c-0.0983-0.271-0.3392-0.388-0.5353-0.26-0.2487 0.163-0.2452 0.376 0.0118 0.704 0.269 0.344 0.2574 0.51-0.0434 0.616-0.2548 0.09-0.3033 0.332-0.1274 0.634 0.2173 0.372 0.3539 0.288 0.5788-0.356 0.1619-0.464 0.2139-1.066 0.1156-1.338h-1e-4zm21.133 1.236c-0.4335-0.459-0.8732-0.104-0.5522 0.447 0.1243 0.213 0.3808 0.286 0.57 0.162 0.2307-0.151 0.2248-0.351-0.0178-0.609zm12.656-0.168c-0.3062-0.324-1.2482 0.269-1.0275 0.648 0.1513 0.259 0.3722 0.244 0.7052-0.049 0.2666-0.234 0.4116-0.504 0.3223-0.599zm1.4974 0.275c0-0.197-0.152-0.359-0.3378-0.359s-0.3378 0.162-0.3378 0.359 0.152 0.358 0.3378 0.358 0.3378-0.161 0.3378-0.358zm-39.353-0.361c0.1157-0.199-0.0092-0.594-0.2777-0.879-0.5458-0.578-0.9507-0.374-0.6893 0.348 0.0938 0.259-0.1067 0.547-0.4455 0.64-0.4177 0.114-0.3233 0.182 0.293 0.21 0.5 0.023 1.0037-0.121 1.1195-0.319zm1.6783 0.018c0.1098-0.189 0.4228-0.252 0.6955-0.141 0.2728 0.111 0.4959 0.037 0.4959-0.165 0-0.485-0.6431-0.692-1.5679-0.504-0.4725 0.096-0.682 0.336-0.5677 0.652 0.2093 0.578 0.6555 0.653 0.9442 0.158zm25.514-0.166c0-0.861-0.3926-1.647-0.7165-1.435-0.1694 0.111-0.2205 0.352-0.1136 0.536 0.1069 0.183-0.0717 0.333-0.3968 0.333-0.5338 0-0.5275 0.051 0.0645 0.526 0.8343 0.669 1.1624 0.68 1.1624 0.04zm9.7187-6e-3c0.1326-0.14-0.0174-0.408-0.3333-0.596-0.3179-0.188-0.4891-0.576-0.3833-0.868 0.131-0.362-0.0325-0.528-0.5208-0.528-0.8142 0-0.9665 0.894-0.205 1.204 0.9629 0.392 0.5522 1.012-0.5067 0.766-0.6013-0.14-1.0134-0.09-1.0134 0.123 0 0.397 2.5765 0.309 2.9625-0.101zm-11.746-0.359c0-0.087-0.152-0.258-0.3378-0.38-0.1858-0.121-0.3378-0.05-0.3378 0.158 0 0.209 0.152 0.38 0.3378 0.38s0.3378-0.071 0.3378-0.158zm8.1296-0.213c0.7903-0.449 0.8791-1.23 0.1038-0.915-0.3022 0.123-0.7582 0.04-1.0134-0.185-0.5043-0.443-0.6113-0.07-0.2588 0.904 0.242 0.669 0.3136 0.681 1.1684 0.196zm7.2356-1.151c-0.0339-0.605 0.1162-0.985 0.3887-0.985 0.3131 0 0.3842 0.316 0.2412 1.074-0.1648 0.874-0.0897 1.074 0.4026 1.074 0.3329 0 0.5025-0.109 0.3769-0.242-0.1255-0.133 0.1008-0.613 0.503-1.067 0.5104-0.576 0.9633-0.763 1.4996-0.62 0.6501 0.173 0.74 0.089 0.5837-0.545-0.1016-0.412-0.4203-0.749-0.7083-0.749s-0.4236-0.106-0.3014-0.235c0.3109-0.33-0.428-1.197-1.0196-1.197-0.6306 0-1.4948 0.91-1.1852 1.248 0.1305 0.143-0.3708 0.168-1.114 0.056-0.7432-0.111-1.4652-0.209-1.6046-0.216-0.5988-0.032-0.1889-0.73 0.4287-0.73 0.5719 0 0.6467-0.159 0.4631-0.985-0.2843-1.279-0.4654-1.468-1.7895-1.87-0.9033-0.275-1.0718-0.243-0.921 0.173 0.139 0.384-0.0977 0.499-0.9576 0.465-0.8036-0.032-1.1906-0.242-1.3052-0.706-0.1061-0.431-0.3507-0.585-0.701-0.442-1.2168 0.495-0.1473 2.256 1.3845 2.279 0.4071 6e-3 0.8341 0.173 0.9489 0.37s0.5038 0.358 0.8645 0.358c0.3606 0 0.6556 0.171 0.6556 0.379 0 0.209-0.152 0.28-0.3378 0.158s-0.3378-0.071-0.3378 0.113-0.4675 0.434-1.0388 0.555c-0.7524 0.16-1.0075 0.393-0.9251 0.847 0.181 0.996 1.2808 1.024 1.3275 0.034 0.0286-0.607 0.081-0.663 0.1937-0.206 0.0849 0.345 0.3949 0.627 0.6888 0.627 0.4631 0 0.4536 0.094-0.0714 0.709-0.5846 0.685-0.5812 0.72 0.0964 0.985 0.3861 0.152 1.2925 0.276 2.0141 0.276 1.2195 0 1.3082-0.07 1.2568-0.985zm-1.7854 0.018c-0.6216-0.659-0.4822-1.361 0.2703-1.361 0.4954 0 0.6756 0.238 0.6756 0.895 0 0.978-0.3162 1.133-0.9459 0.466zm3.4794-2.794c0.1149-0.197 0.2758-0.358 0.3578-0.358 0.0819 0 0.1489 0.161 0.1489 0.358s-0.1609 0.358-0.3577 0.358-0.2638-0.161-0.149-0.358zm-3.8847-1.411c0-0.406 0.152-0.738 0.3378-0.738s0.3378 0.233 0.3378 0.517c0 0.283-0.1521 0.615-0.3378 0.737-0.1858 0.122-0.3378-0.111-0.3378-0.516zm-2.0269-0.379c0-0.197 0.143-0.359 0.3179-0.359 0.1748 0 0.4118 0.162 0.5266 0.359s-0.0282 0.358-0.3178 0.358c-0.2897 0-0.5267-0.162-0.5267-0.358zm13.174 4.834c0-0.295-0.152-0.537-0.3378-0.537s-0.3378 0.242-0.3378 0.537c0 0.296 0.152 0.537 0.3378 0.537s0.3378-0.241 0.3378-0.537zm-48.475-0.537c0.1148-0.197 0.0478-0.358-0.149-0.358-0.1967 0-0.3577 0.161-0.3577 0.358s0.067 0.358 0.1489 0.358c0.082 0 0.2429-0.161 0.3578-0.358zm47.119-0.448c-4e-3 -0.629-0.0732-0.691-0.3155-0.285-0.1707 0.286-0.2354 0.648-0.1438 0.806 0.293 0.502 0.4646 0.308 0.4593-0.521zm-49.923-0.698c-0.2168-0.23-0.5063-0.299-0.6433-0.154-0.1371 0.146-0.03 0.408 0.2379 0.584 0.6309 0.413 0.9158 0.111 0.4054-0.43zm5.3373 0.251c0.3507-0.448 0.3048-0.537-0.2765-0.537-0.7398 0-1.2005 0.463-0.8403 0.845 0.3404 0.361 0.6627 0.272 1.1168-0.308zm31.004-0.328c0.3009-0.7 0.2718-0.906-0.1523-1.079-0.3632-0.147-0.466-0.052-0.3349 0.31 0.1919 0.53-0.9845 1.189-1.3781 0.771-0.1099-0.116 0.0916-0.214 0.4477-0.217 0.3727-4e-3 0.4972-0.117 0.2935-0.268-0.5308-0.395-0.5236-1.875 9e-3 -1.875 0.2516 0 0.5342 0.201 0.6279 0.447 0.1199 0.315 0.1783 0.323 0.1971 0.026 0.0361-0.571-0.9215-1.548-1.5176-1.548-0.8987 0-0.4891-0.957 0.6997-1.636 1.32-0.754 1.5953-1.416 0.4249-1.022-0.6804 0.229-0.7093 0.193-0.2845-0.349 0.3581-0.458 0.378-0.705 0.0818-1.019-0.2151-0.228-0.3911-0.785-0.3911-1.238s-0.152-0.824-0.3378-0.824-0.3378 0.484-0.3378 1.075c0 1.083-0.4355 1.418-0.8713 0.67-0.1611-0.276-0.333-0.22-0.5435 0.179-0.4311 0.817-1.2877 0.728-1.2877-0.133 0-0.394-0.152-0.716-0.3378-0.716-0.564 0-0.3785 1.058 0.3261 1.86 0.5779 0.657 0.7373 0.69 1.2311 0.256 0.5113-0.45 0.544-0.411 0.332 0.393-0.2261 0.859-0.2151 0.866 0.2904 0.196 0.3847-0.511 0.6257-0.591 0.9001-0.3 0.6704 0.711-0.0332 1.257-1.2959 1.006-0.895-0.178-1.1424-0.121-1.0267 0.236 0.0838 0.259 0.0322 0.922-0.1147 1.474-0.236 0.886-0.1909 0.977 0.3877 0.782 0.5141-0.173 0.6077-0.09 0.4357 0.385-0.1368 0.378-0.0066 0.731 0.3471 0.94 0.8249 0.49 0.3258 1.097-0.5111 0.622-1.1553-0.655-1.0608-0.107 0.1197 0.694 1.5532 1.054 3.0941 1.012 3.5712-0.098h1e-4zm-3.6446-3.616c-0.4558-0.582-0.0983-0.703 0.6303-0.214 0.2784 0.187 0.3266 0.394 0.1227 0.528-0.1845 0.121-0.5234-0.02-0.753-0.314zm-1.2228 2.262c0.199-0.137 0.2531-0.364 0.1203-0.505s-0.5236 0.014-0.8683 0.345c-0.5341 0.513-0.7508 0.534-1.464 0.141-0.4616-0.253-0.7679-0.681-0.6827-0.952 0.0884-0.281 0.0011-0.39-0.2037-0.256-0.6729 0.441-0.7302-0.399-0.0813-1.192 0.6385-0.781 0.6382-0.809-0.0262-2.063l-0.6737-1.272 0.7793 0.221c0.4286 0.122 0.9855 0.224 1.2376 0.226 0.268 2e-3 0.3776 0.229 0.264 0.543-0.1185 0.327-7e-4 0.537 0.3016 0.537 0.2729 0 0.4962 0.241 0.4962 0.537 0 0.295 0.152 0.537 0.3378 0.537 0.5712 0 0.3735-1.375-0.2534-1.762-0.3251-0.201-0.4536-0.37-0.2854-0.376 0.1681-6e-3 0.0305-0.333-0.3058-0.727-0.5174-0.606-0.531-0.716-0.0885-0.716 0.2877 0 0.6145-0.253 0.7264-0.562 0.14-0.387 0.4273-0.487 0.9229-0.32 0.5031 0.169 0.6464 0.117 0.4761-0.175-0.1339-0.23-0.5714-0.372-0.9722-0.317-0.7209 0.101-2.9226-0.689-2.9226-1.047 0-0.103 0.266-0.4 0.5912-0.662 0.5247-0.422 0.5294-0.477 0.0413-0.487-0.3024-6e-3 -0.743 0.236-0.9791 0.537-0.3549 0.454-0.3182 0.638 0.212 1.065 0.3527 0.284 0.9073 0.612 1.2325 0.729 0.6303 0.227 0.8184 0.881 0.2533 0.881-0.1858 0-0.3378 0.242-0.3378 0.537s-0.152 0.537-0.3378 0.537c-0.4542 0-0.4314-0.971 0.0299-1.273 0.2248-0.147 0.0607-0.411-0.4222-0.68-0.9748-0.541-1.9723-0.091-1.9723 0.891 0 0.387-0.1685 0.704-0.3745 0.704-0.227 0-0.2939-0.34-0.1699-0.864 0.1962-0.828 0.1632-0.847-0.8079-0.458-0.5568 0.222-1.0124 0.513-1.0124 0.646 0 0.132-0.38 0.341-0.8445 0.465-1.432 0.381-0.9344 0.927 0.8445 0.927 0.9719 0 1.6891 0.163 1.6891 0.383 0 0.217-0.3288 0.295-0.7601 0.182-0.418-0.11-0.5786-0.11-0.3568-1e-3s0.3227 0.422 0.2241 0.694c-0.1478 0.408-0.0273 0.42 0.688 0.066 0.477-0.235 0.8321-0.653 0.7893-0.928s0.1122-0.571 0.3444-0.657c0.2323-0.086 0.4223 0.099 0.4223 0.411 0 0.311 0.152 0.567 0.3378 0.567 0.5311 0 0.3944 0.974-0.1689 1.203-0.2787 0.114-0.7347 0.114-1.0134 0-0.2803-0.114-0.5067-0.01-0.5067 0.233 0 0.261-0.2718 0.362-0.6753 0.251-0.8255-0.229-1.2258 0.298-0.4623 0.609 0.3012 0.123 0.7497 0.045 0.9967-0.172 0.247-0.218 0.6046-0.294 0.7947-0.169s0.67 0.042 1.0664-0.182c0.7203-0.409 0.7203-0.408 0.1061 0.694-0.6003 1.077-0.5984 1.126 0.0792 2.088 0.4235 0.602 1.0584 1.015 1.629 1.062 0.5143 0.042 1.0283 0.175 1.1423 0.296s0.2712 8e-3 0.3494-0.25c0.0782-0.259 0.305-0.583 0.504-0.72zm-27.15 0.028c0-0.197-0.152-0.259-0.3378-0.137s-0.3378 0.383-0.3378 0.58 0.152 0.258 0.3378 0.136c0.1858-0.121 0.3378-0.382 0.3378-0.579zm33.105-0.695c0-0.186-0.152-0.337-0.3378-0.337s-0.3378 0.251-0.3378 0.558 0.152 0.459 0.3378 0.337 0.3378-0.373 0.3378-0.558zm-31.945-0.374c-0.9207-0.382-1.4977-0.377-1.4977 0.012 0 0.375 1.3501 0.691 1.8355 0.429 0.1735-0.093 0.0215-0.291-0.3378-0.44v-1e-3zm1.7537 6e-3c0.0232-0.18 0.0612-0.57 0.0845-0.865 0.0248-0.316 0.376-0.537 0.8506-0.537 0.8598 0 1.4504-0.972 0.9276-1.526-0.1722-0.183-0.5952-0.255-0.9401-0.161-0.5161 0.141-0.4926 0.178 0.1331 0.212 0.418 0.023 0.76 0.203 0.76 0.4 0 0.467-1.4539 0.464-1.8947-4e-3 -0.2292-0.243-0.3493 0.232-0.3666 1.451-0.0142 0.997 0.0708 1.71 0.1888 1.585s0.2336-0.375 0.2568-0.556v1e-3zm2.8291 0.209c0.2906-0.371 0.3034-0.537 0.0414-0.537-0.2086 0-0.3792 0.156-0.3792 0.347s-0.228 0.254-0.5067 0.141c-0.2787-0.114-0.5067-0.028-0.5067 0.19 0 0.575 0.8607 0.486 1.3512-0.141zm32.43 0c0-0.295-0.152-0.537-0.3378-0.537s-0.3378 0.242-0.3378 0.537c0 0.296 0.152 0.537 0.3378 0.537s0.3378-0.241 0.3378-0.537zm-11.207-1.02c0.0741-0.401-0.1226-0.591-0.6111-0.591-0.3962 0-0.6264-0.162-0.5116-0.359 0.352-0.603-0.3942-0.396-0.8876 0.247-0.4051 0.528-0.3903 0.575 0.1168 0.373 0.3191-0.126 0.6702-0.076 0.78 0.112 0.1098 0.189 0.0386 0.343-0.1581 0.343-0.1968 0-0.3578 0.16-0.3578 0.356 0 0.597 1.5126 0.151 1.6294-0.481zm-19.976-1.103c-0.0586-0.187-0.3112-0.411-0.5614-0.5-0.3149-0.111-0.3852 0.032-0.2285 0.465 0.1674 0.463 0.0933 0.572-0.2839 0.419-0.5061-0.206-0.7002 0.165-0.3053 0.584 0.2867 0.304 1.5092-0.555 1.3791-0.968zm32.366 0.999c0.4193-0.171 0.4557-0.299 0.1427-0.504-0.4856-0.318-1.3257-0.057-1.3257 0.413 0 0.377 0.4036 0.408 1.183 0.091zm-29.897-1.003c0-0.087-0.152-0.258-0.3378-0.38s-0.3378-0.05-0.3378 0.158c0 0.209 0.152 0.38 0.3378 0.38s0.3378-0.071 0.3378-0.158zm28.714-0.559c0-0.197-0.152-0.358-0.3378-0.358s-0.3378 0.161-0.3378 0.358 0.152 0.358 0.3378 0.358 0.3378-0.161 0.3378-0.358zm-4.9796-0.662c-0.0524-0.253 0.2788-0.317 0.9289-0.179 0.643 0.137 1.0104 0.068 1.0104-0.188 0-0.222-0.418-0.406-0.9289-0.409-0.7239-4e-3 -0.8171-0.082-0.4223-0.352 0.5587-0.383 0.4677-0.427-1.0134-0.493-1.091-0.048-1.3435 0.282-0.4834 0.632 0.3643 0.148 0.4588 0.453 0.3023 0.976-0.1657 0.553-0.1031 0.712 0.2301 0.583 0.2517-0.097 0.4211-0.353 0.3763-0.57zm2.9528 0.504c0-0.087-0.152-0.257-0.3378-0.379-0.1859-0.122-0.3379-0.051-0.3379 0.158s0.1521 0.379 0.3379 0.379c0.1857 0 0.3378-0.071 0.3378-0.158zm-29.051-0.558c0-0.197-0.313-0.358-0.6956-0.358-0.3825 0-0.6016 0.161-0.4868 0.358 0.1149 0.197 0.4279 0.358 0.6956 0.358s0.4868-0.161 0.4868-0.358zm12.151-0.372c-0.7952-0.533-1.1982-0.395-0.4775 0.164 0.3603 0.279 0.727 0.431 0.8148 0.338s-0.064-0.319-0.3373-0.502zm-6.9152-0.344c0.1148-0.197 0.0567-0.358-0.1291-0.358s-0.4317 0.161-0.5466 0.358c-0.1148 0.197-0.0567 0.358 0.1291 0.358s0.4317-0.161 0.5466-0.358zm-2.1539-0.812c-0.3336-0.351-0.3724-0.31-0.1891 0.2 0.1269 0.354 0.3158 0.552 0.4198 0.442s2e-4 -0.399-0.2307-0.642zm25.885-0.472c-0.3219-0.341-0.9673 0.212-0.7274 0.623 0.1426 0.245 0.3315 0.239 0.5741-0.018 0.1989-0.21 0.2679-0.482 0.1533-0.604v-1e-3zm-23.59-0.014c0.0774-0.074 0.0708-0.208-0.0148-0.299-0.258-0.274-1.6461 0.223-1.6461 0.589 0 0.298 1.2795 0.075 1.6609-0.29zm4.873 0.063c0.1256-0.347 0.0255-0.453-0.3016-0.32-0.3504 0.143-0.4895-0.066-0.4895-0.734 0-0.818-0.6044-1.377-0.7188-0.665-0.2229 1.389-0.1573 1.802 0.2596 1.632 0.2525-0.103 0.4592-8e-3 0.4592 0.21 0 0.575 0.5707 0.486 0.7911-0.123zm-3.1626-0.385c-0.235-0.3-0.4968-0.472-0.5819-0.382-0.2342 0.248 0.2417 0.928 0.65 0.928 0.224 0 0.1984-0.206-0.0681-0.546zm19.003-0.954c0.392-0.062 0.7874-0.354 0.8786-0.649 0.1372-0.444 0.076-0.459-0.3529-0.083-0.2854 0.249-0.7465 0.361-1.0248 0.248-0.5776-0.235-1.0652 0.751-0.6866 1.389 0.1671 0.282 0.283 0.221 0.3597-0.189 0.0622-0.333 0.4339-0.655 0.826-0.716zm-22.749-0.016c0.2866 0.107 0.3775 0.018 0.2334-0.229-0.1461-0.25 0.0288-0.404 0.4597-0.404 0.7608 0 0.9485 0.561 0.2733 0.816-0.2322 0.088-0.3209 0.276-0.1971 0.418 0.1239 0.142 0.5048-0.037 0.8465-0.399 0.6029-0.637 0.5883-0.675-0.4953-1.293-1.1532-0.658-1.7587-0.568-1.7587 0.261 0 0.263-0.38 0.578-0.8445 0.702s-0.8445 0.387-0.8445 0.585c0 0.209 0.391 0.151 0.9289-0.137 0.511-0.273 1.1402-0.417 1.3983-0.32zm7.826-0.43c-0.2282-0.291-0.3069-0.715-0.1748-0.942 0.1803-0.309 0.2999-0.31 0.4794-2e-3 0.1707 0.293 0.497 0.307 1.1401 0.047 0.6709-0.27 0.907-0.251 0.9247 0.076 0.0336 0.621 0.5994-0.858 0.6281-1.641 0.013-0.357-0.1216-0.553-0.2993-0.437-0.1777 0.117-0.2374 0.449-0.1328 0.738 0.1149 0.317-0.0094 0.525-0.3132 0.525-0.2769 0-0.5761-0.402-0.6649-0.895-0.1254-0.695-0.0212-0.895 0.4674-0.895 0.3458 0 0.6287-0.143 0.6287-0.319 0-0.471 1.1393-0.29 1.454 0.232 0.1494 0.248 0.1784 0.611 0.0645 0.806s0.0299 0.355 0.3195 0.355c0.3015 0 0.5267-0.306 0.5267-0.716 0-0.501 0.2288-0.72 0.7601-0.728 0.65-0.01 0.6867-0.074 0.2533-0.447-0.6047-0.521-0.9287-2.256-0.3505-1.877 0.2091 0.137 0.5995 0.056 0.8677-0.18s0.7176-0.336 0.9986-0.222c0.2811 0.115 0.5111 0.052 0.5111-0.139 0-0.19 0.266-0.351 0.5911-0.357 0.5586-0.01 0.5582-0.032-7e-3 -0.381-0.329-0.203-0.5094-0.521-0.4008-0.707 0.1085-0.187-0.0783-0.449-0.4152-0.583-0.7065-0.281-1.4631-1.242-1.2568-1.595 0.0772-0.133-0.4422 0.057-1.1542 0.422-1.4001 0.717-2.3132 1.659-1.9656 2.028 0.1194 0.126 0.2171 0.042 0.2171-0.188s0.2157-0.418 0.4793-0.418c0.6028 0 2.5559 1.162 2.5588 1.522 0.0038 0.487-1.1157 0.279-1.7448-0.324-0.5748-0.552-0.6177-0.552-0.6177 0 0 0.326 0.1369 0.593 0.3043 0.593s0.2896 0.554 0.2715 1.231c-0.0387 1.446-0.4301 1.362-0.7456-0.161-0.2523-1.218-0.8436-1.448-0.8436-0.329 0 0.708-0.0273 0.713-0.5912 0.112-0.5639-0.6-0.5962-0.593-0.6991 0.154-0.1656 1.201-0.7366 0.929-0.7366-0.351 0-1.403-0.2941-1.175-0.4624 0.358-0.0863 0.785 0.0176 1.134 0.3378 1.134 0.7916 0 0.5058 0.715-0.2977 0.745-0.418 0.016-0.5785 0.106-0.3567 0.202s0.3167 0.413 0.2109 0.705c-0.106 0.293 0.0918 0.759 0.4413 1.04 0.7523 0.604 0.0815 0.722-0.9088 0.161-0.5141-0.292-0.6534-0.254-0.6534 0.179 0 0.302-0.152 0.549-0.3378 0.549-0.5619 0-0.3787 1.015 0.2505 1.388 0.7545 0.448 0.9772 0.213 0.4441-0.468h-1e-4zm7.0847-7.352c-0.2733-0.183-0.3939-0.442-0.2679-0.576 0.3091-0.327 1.2716 0.09 1.2716 0.551 0 0.455-0.3498 0.464-1.0037 0.025zm-1.6143-0.967c-0.5711-0.244-0.5368-0.837 0.0483-0.837 0.2588 0 0.558 0.242 0.665 0.537 0.1988 0.549 0.0325 0.619-0.7133 0.3zm5.8271 8.832c0.1148-0.197-0.0372-0.358-0.3378-0.358s-0.4526 0.161-0.3378 0.358 0.2669 0.358 0.3378 0.358c0.071 0 0.223-0.161 0.3378-0.358zm-14.395-0.741c-0.5421-0.356-0.7888-0.167-0.4786 0.365 0.1244 0.213 0.3838 0.284 0.5766 0.158 0.227-0.149 0.1924-0.333-0.098-0.523zm13.889-0.691c0-0.197-0.152-0.358-0.3378-0.358s-0.3378 0.161-0.3378 0.358 0.152 0.358 0.3378 0.358 0.3378-0.161 0.3378-0.358zm2.3375-0.734c-0.7334-0.481-1.1428 0.085-0.4502 0.622 0.4569 0.354 0.6753 0.377 0.768 0.083 0.0712-0.227-0.0718-0.544-0.3178-0.705zm-8.9247 0.376c0.1148-0.197 0.0478-0.359-0.149-0.359s-0.3577 0.162-0.3577 0.359 0.067 0.358 0.1489 0.358c0.082 0 0.243-0.162 0.3578-0.358zm-9.2897-0.564c0-0.333-0.2298-0.516-0.5632-0.448-0.8475 0.175-0.9638 1.012-0.1406 1.012 0.415 0 0.7038-0.232 0.7038-0.564zm1.582-0.22c-0.1079-0.286-0.1879-0.201-0.2041 0.216-0.0146 0.378 0.0651 0.59 0.1774 0.471 0.1122-0.119 0.1242-0.428 0.0267-0.687zm1.7961 0.425c0-0.197-0.237-0.358-0.5267-0.358-0.2896 0-0.4327 0.161-0.3179 0.358 0.1149 0.197 0.3519 0.359 0.5267 0.359s0.3179-0.162 0.3179-0.359zm9.6054-0.111c-0.1222-0.337 0.1412-0.444 0.9396-0.38 0.6101 0.048 1.4693-4e-3 1.9094-0.118 0.7297-0.188 0.6851-0.248-0.5067-0.688-1.5792-0.583-1.5672-0.582-1.3068-0.135 0.1148 0.197-0.0192 0.358-0.298 0.358-0.2787 0-0.6022-0.164-0.7189-0.364-0.3389-0.581-0.8411-0.031-0.8411 0.922 0 0.53 0.1954 0.874 0.4961 0.874 0.2729 0 0.4198-0.211 0.3264-0.469zm-10.208-1.672c-0.0529-0.243 0.0698-0.653 0.2727-0.912 0.2897-0.37 0.2197-0.43-0.326-0.279-0.4644 0.129-0.6949 0.486-0.6949 1.076 0 0.556 0.1567 0.823 0.4223 0.719 0.2322-0.09 0.3789-0.362 0.3259-0.604zm2.2076-0.52c0-0.752-0.0832-0.815-0.6162-0.462-0.456 0.302-0.5221 0.528-0.2542 0.87 0.5517 0.705 0.8704 0.556 0.8704-0.408zm11.232 0.713c0-0.087-0.152-0.258-0.3378-0.379-0.1858-0.122-0.3378-0.051-0.3378 0.158 0 0.208 0.152 0.379 0.3378 0.379s0.3378-0.071 0.3378-0.158zm-1.3512-2.276c0-0.082-0.2539-0.046-0.5642 0.08-0.3102 0.126-0.6794 0.032-0.8203-0.21-0.2006-0.344-0.4627-0.335-1.2093 0.042l-0.9532 0.482 0.8445 0.268c0.4645 0.147 0.7216 0.284 0.5713 0.303-0.1503 0.02-0.1803 0.196-0.0665 0.391 0.1809 0.31 2.1977-0.934 2.1977-1.356z" fill="#1A1A1A"/>
<path d="m106.69 99.866c2.87-1.8785 5.823-3.138 8.86-3.7782 1.665-0.3484 3.261-0.251 4.788 0.292 1.111 0.3854 2.002 1.0907 2.673 2.1158 1.056 1.6132 1.067 3.5682 0.032 5.8652-0.309 0.69-0.397 1.138-0.263 1.343 0.126 0.192 0.653 0.296 1.581 0.313 1.291 0.033 2.53 0.374 3.716 1.023 1.177 0.636 2.11 1.479 2.798 2.532 1.038 1.585 1.475 3.505 1.311 5.76-0.283 4.012-2.632 7.462-7.047 10.352-3.048 1.995-6.107 3.226-9.178 3.694-2.083 0.308-4 0.109-5.751-0.599-1.319-0.524-2.403-1.434-3.253-2.733-1.154-1.763-1.293-3.751-0.418-5.963 0.315-0.831 0.401-1.356 0.258-1.575-0.117-0.177-0.595-0.342-1.437-0.494-2.112-0.394-3.736-1.459-4.872-3.195-1.5748-2.405-1.6289-5.113-0.163-8.122 1.277-2.613 3.399-4.89 6.365-6.8308zm3.405 3.1888c-0.602 0.394-1.005 0.882-1.209 1.465-0.199 0.56-0.152 1.065 0.144 1.516 0.465 0.711 1.433 1.102 2.905 1.173 1.644 0.096 2.814-0.084 3.511-0.541 0.356-0.232 0.52-0.682 0.494-1.348s-0.236-1.3-0.629-1.901c-0.528-0.807-1.231-1.225-2.11-1.255-1.087-0.05-2.122 0.247-3.106 0.891zm3.104 15.392c-0.314 0.206-0.469 0.522-0.463 0.947 0.01 0.404 0.167 0.838 0.471 1.302 0.349 0.534 0.866 1.025 1.551 1.475 0.684 0.45 1.366 0.745 2.044 0.887 1.638 0.354 3.167 0.065 4.588-0.865 0.834-0.546 1.376-1.164 1.626-1.855 0.265-0.7 0.2-1.351-0.194-1.952-0.438-0.67-1.035-1.06-1.791-1.171-0.742-0.119-2.104-0.038-4.086 0.244-1.887 0.279-3.136 0.608-3.746 0.988zm49.506-30.264 1.149 7.125c0.185 1.2067 0.254 2.0591 0.209 2.557-0.053 0.4844-0.238 0.8294-0.552 1.0351-0.301 0.1968-0.652 0.2414-1.054 0.1338-0.258-0.0656-1-0.4389-2.227-1.1198-1.213-0.6898-2.261-1.3217-3.144-1.8955l-6.691-4.3177c-0.924-0.6059-1.59-0.7746-2.001-0.5063-0.437 0.2863-0.439 0.805-6e-3 1.5563 0.96 1.6753 1.887 3.1964 2.782 4.5632 0.93 1.4214 1.629 2.3402 2.097 2.756 0.292 0.239 0.558 0.377 0.798 0.415 0.253 0.029 0.845-6e-3 1.775-0.107 0.603-0.063 1.092 0.192 1.468 0.767 1.002 1.53-0.459 3.579-4.381 6.147-3.308 2.164-5.449 2.502-6.424 1.012-0.251-0.382-0.347-0.71-0.291-0.981 0.062-0.294 0.336-0.844 0.823-1.651 0.317-0.5 0.434-0.977 0.352-1.431-0.069-0.463-0.384-1.242-0.945-2.339-0.593-1.174-1.649-3.0405-3.167-5.5995-1.528-2.5728-2.873-4.7475-4.036-6.5243-1.458-2.2278-2.617-3.6263-3.478-4.1954-0.302-0.1928-0.58-0.3039-0.833-0.3332-0.24-0.0383-0.65-0.0237-1.23 0.0439-1.275 0.1704-2.154-0.1134-2.637-0.8514-0.313-0.4784-0.421-1.032-0.325-1.661 0.109-0.6379 0.411-1.2356 0.905-1.7932 0.485-0.5713 1.186-1.2449 2.103-2.021 0.922-0.7986 1.732-1.426 2.429-1.8823 1.749-1.145 3.08-1.811 3.992-1.9981 0.445-0.0959 0.846-0.0948 1.203 0.0034s0.964 0.3842 1.821 0.8581l9.403 5.0611c1.029 0.5569 1.694 0.8729 1.997 0.9479 0.303 0.0751 0.612 0.0097 0.926-0.196 0.273-0.1789 0.445-0.438 0.516-0.7772 0.085-0.3481 0.087-0.8963 7e-3 -1.6445l-0.799-7.5298c-0.119-0.957-0.195-1.5806-0.229-1.8709-0.225-1.805-0.156-3.1478 0.204-4.0282 0.449-1.1334 1.774-2.4202 3.975-3.8604 3.868-2.5315 6.378-2.9158 7.532-1.1526 0.26 0.3963 0.395 0.7667 0.406 1.1111 1e-3 0.3308-0.118 0.8191-0.359 1.4649-0.316 0.8899-0.261 1.8395 0.166 2.8489 0.92 2.0919 2.265 4.4909 4.037 7.1971 2.281 3.4852 4.444 6.4326 6.489 8.8421 0.503 0.5887 0.912 0.9455 1.228 1.0705 0.33 0.1161 1.002 0.1739 2.017 0.1734 0.707 6e-3 1.239 0.2823 1.597 0.829 0.626 0.9568 0.433 2.0493-0.578 3.2776-0.513 0.648-1.11 1.2433-1.789 1.7857-0.68 0.5425-1.771 1.3057-3.275 2.2897-2.31 1.5118-4.139 2.4749-5.488 2.8893-1.499 0.454-2.539 0.2368-3.121-0.6516-0.214-0.3281-0.307-0.6482-0.277-0.9606 0.021-0.326 0.19-0.9929 0.506-2.0005 0.168-0.5196 0.045-1.2297-0.369-2.1303-0.4-0.9095-1.244-2.3483-2.532-4.3164-0.716-1.0934-1.24-1.7752-1.573-2.0453-0.32-0.2791-0.643-0.3113-0.971-0.0966-0.383 0.2505-0.578 0.7585-0.584 1.5241-0.015 0.752 0.136 2.1464 0.454 4.1834zm35.257-24.072-9.636 6.3066c-0.424 0.2773-0.515 0.6004-0.273 0.9695 0.581 0.8884 1.61 1.4158 3.085 1.5824 1.481 0.1439 2.774-0.1464 3.881-0.871 0.656-0.4294 1.3-1.0265 1.932-1.7914 0.636-0.7874 1.094-1.5356 1.371-2.2446 0.25-0.6321 0.512-1.0377 0.785-1.2166 0.356-0.2326 0.847-0.242 1.475-0.0283 0.628 0.2138 1.094 0.553 1.398 1.0177 0.645 0.984 0.651 2.3365 0.02 4.0573-1.108 3.0488-3.084 5.5035-5.927 7.3641-2.87 1.8785-5.821 2.6192-8.853 2.222-1.48-0.2028-2.908-0.6838-4.283-1.443-1.817-1.0167-3.285-2.3792-4.403-4.0877-1.503-2.2961-2.156-4.8162-1.961-7.56 0.165-2.3727 0.922-4.5568 2.271-6.5524 1.009-1.5002 2.327-2.7825 3.954-3.847 2.597-1.6996 5.287-2.4063 8.071-2.1199 1.399 0.1387 2.709 0.5304 3.931 1.175 1.394 0.7277 2.449 1.6382 3.165 2.7316 0.581 0.8884 0.875 1.7404 0.882 2.5559-3e-3 0.8019-0.298 1.3952-0.885 1.7798zm-11.612 2.1239 2.071-1.3552c0.874-0.5725 1.048-1.2619 0.52-2.0683-0.483-0.7381-1.088-1.2008-1.816-1.3882s-1.434-0.0574-2.117 0.3898c-0.765 0.501-1.17 1.1953-1.214 2.0829-0.043 0.8287 0.123 1.5301 0.499 2.1041 0.268 0.4101 0.552 0.6345 0.85 0.6732 0.313 0.0299 0.715-0.1162 1.207-0.4383zm28.648-30.903c0.342-0.2236 0.772-0.2222 1.291 0.0041 0.51 0.2128 0.936 0.5788 1.275 1.0982 0.367 0.5604 0.605 1.3122 0.715 2.2555 0.124 0.9343 0.078 1.7744-0.137 2.5201-0.135 0.4791-0.149 0.8007-0.042 0.9647 0.027 0.041 0.148 0.196 0.363 0.4652 0.229 0.2602 0.42 0.5064 0.572 0.7388 1.064 1.6264 1.412 3.351 1.043 5.1737-0.34 1.6281-1.11 3.2254-2.31 4.7919-1.187 1.5576-2.71 2.9446-4.568 4.1612-0.451 0.2952-0.914 0.5586-1.387 0.7902-0.382 0.1915-0.669 0.35-0.86 0.4752-0.724 0.4741-0.849 1.0733-0.375 1.7977 0.304 0.4647 0.778 0.6817 1.421 0.6509 0.649-0.0534 1.376-0.344 2.182-0.8718 0.547-0.3578 1.304-0.9608 2.272-1.8088 2.036-1.7815 3.586-3.021 4.653-3.7188 1.612-1.0555 3.037-1.6075 4.275-1.6559 0.979-0.0552 1.915 0.1521 2.808 0.6218 0.906 0.4607 1.637 1.1148 2.192 1.9622 0.903 1.3804 1.274 3.0508 1.113 5.0112-0.201 2.318-1.229 4.6108-3.083 6.8785-1.456 1.7728-3.386 3.4463-5.792 5.0207-3.034 1.9859-5.798 3.1314-8.293 3.4364-1.161 0.1352-2.233 0.0174-3.218-0.3534-0.984-0.3708-1.727-0.9389-2.228-1.7043-0.349-0.533-0.527-1.119-0.536-1.7579 6e-3 -0.6478 0.172-1.215 0.497-1.7015 0.303-0.4324 0.392-0.7443 0.267-0.9356-0.099-0.1504-0.413-0.2572-0.942-0.3206-1.693-0.2001-2.861-0.7922-3.506-1.7762-0.429-0.6561-0.612-1.5026-0.549-2.5396 0.077-1.0459 0.38-2.0151 0.908-2.9077 0.221-0.3787 0.278-0.6501 0.17-0.8141-0.125-0.1913-0.518-0.3442-1.178-0.4585-2.258-0.377-3.955-1.4335-5.091-3.1692-0.599-0.9158-0.926-1.9515-0.979-3.1073-0.04-1.1647 0.192-2.3316 0.696-3.5008 1.261-2.8753 3.231-5.1896 5.91-6.9429 1.066-0.6977 2.344-1.3393 3.835-1.9247 1.405-0.568 2.34-1.0041 2.804-1.3082 1.49-0.9751 2.588-2.5334 3.295-4.6749 0.167-0.4607 0.339-0.7492 0.517-0.8655zm-8.354 11.53c-0.684 0.4473-1.067 1.0693-1.151 1.866-0.07 0.7877 0.176 1.6121 0.74 2.4731 0.966 1.4761 1.965 2.5108 2.998 3.104 1.032 0.5932 1.918 0.6482 2.656 0.1652 0.724-0.4741 1.119-1.1232 1.185-1.9472 0.057-0.8377-0.219-1.7212-0.827-2.6506-0.957-1.4624-1.925-2.4492-2.904-2.9604-0.974-0.5338-1.873-0.5505-2.697-0.0501zm7.74 21.581c-0.341 0.2237-0.382 0.5337-0.123 0.93 0.528 0.8064 1.39 1.1694 2.587 1.0889 1.206-0.0668 2.505-0.5564 3.9-1.4688 1.339-0.8767 2.268-1.7387 2.787-2.5861 0.533-0.8563 0.589-1.6056 0.169-2.248-0.224-0.3417-0.56-0.5416-1.008-0.5997-0.439-0.0445-0.87 0.0719-1.294 0.3492-0.218 0.1431-0.515 0.3762-0.889 0.6992-0.685 0.624-1.499 1.2446-2.442 1.8618-0.697 0.4562-1.389 0.8604-2.076 1.2125-0.505 0.272-0.931 0.4723-1.276 0.6008-0.155 0.0621-0.266 0.1155-0.335 0.1602z" fill="#F9F9F9"/>
<path d="m0 175.67 45.377 35.78 49.35-33.704-42.229-38.488-52.497 36.412z" fill="#fd5"/>
<path d="m24.764 164.73 11.148-7.394 11.994 9.829-10.925 7.242-12.217-9.677z"/>
<path d="m47.395 182.6 11.148-7.395 11.994 9.829-10.925 7.243-12.217-9.677z"/>
<path d="m94.727 177.75-5.4296 18.681-46.492 32.129 2.5715-17.106 49.35-33.704z" fill="#D4AA00"/>
<path d="m0 175.67 1.2273 15.843 41.578 37.043 2.5715-17.106-45.377-35.78z"/>
<path d="m1.4163 186.79 42.334 35.153-0.945 6.615-41.578-37.043 0.189-4.725z" fill="#80FFE6"/>
</svg>
