<?xml version="1.0" encoding="UTF-8"?>
<svg version="1.1" viewBox="0 0 261.32 96.813" viewbox="0 0 2613.1743 968.13643" xmlns="http://www.w3.org/2000/svg" xmlns:cc="http://creativecommons.org/ns#" xmlns:dc="http://purl.org/dc/elements/1.1/" xmlns:rdf="http://www.w3.org/1999/02/22-rdf-syntax-ns#">
<g transform="matrix(.1 0 0 .1 102.87 29.055)">
<path d="m138.5 676.88c-7.5296-1.1763-14.286-3.4472-16.667-5.6019-1.7683-1.6003-1.8329-10.871-1.8329-263v-261.34l2.3983-11.323c6.8259-32.227 19.525-57.332 39.373-77.838 28.762-29.715 69.472-44.846 120.66-44.846 73.181 0 121.95 28.387 143.54 83.55 9.4975 24.268 13.311 47.633 13.376 81.95 0.052 27.268-1.3163 39.5-6.8171 60.95-17.137 66.825-63.569 105.42-135.38 112.52-31.646 3.1322-68.867-1.1055-93.823-10.682-1.0917-0.419-1.3239 27.706-1.336 161.85-0.012 126.86-0.2848 162.88-1.25 164.76-1.7947 3.492-5.5553 5.953-11.768 7.7013-6.5899 1.8544-41.288 2.7797-50.467 1.3458zm161-394.48c17.148-4.7004 32.344-17.394 40.29-33.656 8.9134-18.241 11.227-29.968 11.897-60.311 0.7571-34.258-2.263-53.708-11.181-72-5.0928-10.447-10.976-17.934-18.585-23.651-13.036-9.7947-21.821-12.302-42.921-12.25-14.078 0.035-16.234 0.2836-23.5 2.7102-4.4 1.4695-10.257 3.9748-13.015 5.5674-19.769 11.414-32.658 35.79-36.528 69.082-1.6011 13.771-0.7396 48.391 1.5189 61.041 6.796 38.065 25.018 59.564 55.1 65.007 7.3271 1.3259 29.906 0.3844 36.925-1.5396zm-1195 69.424c-21.476-2.001-43.406-8.1596-60.715-17.051-44.185-22.696-67.145-64.411-71.849-130.54-2.2072-31.024 1.379-62.901 10.046-89.299 7.6307-23.241 18.092-40.936 33.79-57.154 28.762-29.715 69.472-44.846 120.66-44.846 22.506 0 48.98 3.8257 65.493 9.4645 4.0838 1.3945 7.7963 2.5355 8.25 2.5355 0.45367 0 0.82485-68.67 0.82485-152.6v-152.6l3.25-3.2376c5.4652-5.4443 14.264-7.0654 38.25-7.0473 15.942 0.012 21.302 0.3717 26.418 1.7724 8.9518 2.451 12.812 5.0579 14.115 9.5321 0.75322 2.587 0.96928 74.985 0.72719 243.68-0.38367 267.36 0.17717 246.06-7.2407 274.99-17.127 66.786-63.576 105.38-135.38 112.49-11.894 1.1772-33.526 1.1384-46.644-0.084zm49-69.424c17.148-4.7004 32.343-17.394 40.29-33.656 8.9134-18.241 11.227-29.968 11.897-60.311 0.75715-34.258-2.263-53.708-11.181-72-5.0928-10.447-10.976-17.934-18.585-23.651-13.035-9.7947-21.821-12.302-42.921-12.25-14.078 0.035-16.234 0.2836-23.5 2.7102-4.4 1.4695-10.257 3.9748-13.015 5.5674-19.769 11.414-32.658 35.79-36.529 69.082-1.601 13.771-0.73952 48.391 1.519 61.041 6.796 38.065 25.018 59.564 55.1 65.007 7.3271 1.3259 29.906 0.3844 36.925-1.5396zm291 69.424c-21.476-2.001-43.406-8.1596-60.715-17.051-44.185-22.696-67.145-64.411-71.849-130.54-2.8039-39.412 3.8385-79.845 18-109.57 9.461-19.858 26.53-40.374 43.873-52.733 16.364-11.662 38.17-20.801 59.393-24.892 44.582-8.5931 94.253-3.4647 127.29 13.142 39.926 20.069 62.216 54.794 70.643 110.05 2.8981 19.004 3.1478 56.141 0.49854 74.149-9.1436 62.153-38.175 103.72-86.97 124.52-27.589 11.762-63.234 16.359-100.16 12.918zm49-69.424c17.148-4.7004 32.343-17.394 40.29-33.656 8.9134-18.241 11.227-29.968 11.897-60.311 0.75715-34.258-2.263-53.708-11.181-72-5.0928-10.447-10.976-17.934-18.585-23.651-13.035-9.7947-21.821-12.302-42.921-12.25-14.078 0.035-16.234 0.2836-23.5 2.7102-4.4 1.4695-10.257 3.9748-13.015 5.5674-19.769 11.414-32.658 35.79-36.529 69.082-1.601 13.771-0.73952 48.391 1.519 61.041 6.796 38.065 25.018 59.564 55.1 65.007 7.3271 1.3259 29.906 0.3844 36.925-1.5396zm1097 69.424c-21.476-2.001-43.406-8.1596-60.716-17.051-44.185-22.696-67.145-64.411-71.849-130.54-2.8039-39.412 3.8384-79.845 18-109.57 9.461-19.858 26.53-40.374 43.873-52.733 16.364-11.662 38.17-20.801 59.393-24.892 44.582-8.5931 94.253-3.4647 127.29 13.142 39.752 19.982 61.785 54.134 70.67 109.54 2.1329 13.301 2.2101 16.605 2.581 110.41l0.3823 96.695-4.3125 1.3018c-6.1751 1.864-59.788 1.8487-65.062-0.019l-3.75-1.3275v-15.71l-8.9276 4.4362c-28.538 14.18-67.346 20.068-107.57 16.32zm49-69.424c17.148-4.7004 32.344-17.394 40.29-33.656 8.9134-18.241 11.227-29.968 11.897-60.311 0.7571-34.258-2.263-53.708-11.181-72-5.0928-10.447-10.976-17.934-18.585-23.651-13.036-9.7947-21.821-12.302-42.921-12.25-14.078 0.035-16.234 0.2836-23.5 2.7102-4.4 1.4695-10.257 3.9748-13.015 5.5674-19.769 11.414-32.658 35.79-36.528 69.082-1.6011 13.771-0.7396 48.391 1.5189 61.041 6.796 38.065 25.018 59.564 55.1 65.007 7.3271 1.3259 29.906 0.3844 36.925-1.5396zm291 69.424c-21.476-2.001-43.406-8.1596-60.716-17.051-43.836-22.517-67.176-64.577-71.773-129.34-0.6157-8.6728-0.9972-103.74-1.0026-249.85l-0.01-235.85 3.25-3.2376c5.4652-5.4443 14.264-7.0654 38.25-7.0473 15.942 0.012 21.302 0.3717 26.418 1.7724 8.337 2.2827 12.644 5.0186 13.993 8.8886 0.7662 2.1982 1.0884 48.485 1.0884 156.38v153.26l8.1164-3.423c38.703-16.323 100.49-17.764 141.49-3.3004 50.287 17.744 78.03 54.892 87.533 117.21 2.8981 19.004 3.1478 56.141 0.4985 74.149-9.1435 62.153-38.175 103.72-86.97 124.52-27.589 11.762-63.234 16.359-100.16 12.918zm49-69.424c17.148-4.7004 32.344-17.394 40.29-33.656 8.9134-18.241 11.227-29.968 11.897-60.311 0.7571-34.258-2.263-53.708-11.181-72-5.0928-10.447-10.976-17.934-18.585-23.651-13.036-9.7947-21.821-12.302-42.921-12.25-14.078 0.035-16.234 0.2836-23.5 2.7102-4.4 1.4695-10.257 3.9748-13.015 5.5674-19.769 11.414-32.658 35.79-36.528 69.082-1.6011 13.771-0.7396 48.391 1.5189 61.041 6.796 38.065 25.018 59.564 55.1 65.007 7.3271 1.3259 29.906 0.3844 36.925-1.5396zm416 69.424c-21.476-2.001-43.406-8.1596-60.716-17.051-44.185-22.696-67.145-64.411-71.849-130.54-2.8039-39.412 3.8384-79.845 18-109.57 9.461-19.858 26.53-40.374 43.873-52.733 16.364-11.662 38.17-20.801 59.393-24.892 44.582-8.5931 94.253-3.4647 127.29 13.142 39.926 20.069 62.216 54.794 70.643 110.05 2.8981 19.004 3.1478 56.141 0.4985 74.149-9.1435 62.153-38.175 103.72-86.97 124.52-27.589 11.762-63.234 16.359-100.16 12.918zm49-69.424c17.148-4.7004 32.344-17.394 40.29-33.656 8.9134-18.241 11.227-29.968 11.897-60.311 0.7571-34.258-2.263-53.708-11.181-72-5.0928-10.447-10.976-17.934-18.585-23.651-13.036-9.7947-21.821-12.302-42.921-12.25-14.078 0.035-16.234 0.2836-23.5 2.7102-4.4 1.4695-10.257 3.9748-13.015 5.5674-19.769 11.414-32.658 35.79-36.528 69.082-1.6011 13.771-0.7396 48.391 1.5189 61.041 6.796 38.065 25.018 59.564 55.1 65.007 7.3271 1.3259 29.906 0.3844 36.925-1.5396zm-279.96 68.486c-8.9554-1.4036-15.276-3.8073-17.523-6.6642-2.0041-2.5477-2.0127-3.5755-2.0127-239.52v-236.97l3.25-3.2376c5.4652-5.4443 14.264-7.0654 38.25-7.0473 15.942 0.012 21.302 0.3717 26.418 1.7724 8.337 2.2827 12.644 5.0186 13.993 8.8886 1.6729 4.7991 1.4996 470.47-0.1763 473.73-1.7947 3.492-5.5553 5.953-11.768 7.7013-6.5834 1.8526-41.293 2.7805-50.431 1.3483zm-1512.3-94.703c0.28512-63.708 0.7826-95.255 1.5888-100.75 6.444-43.923 19.369-73.346 42.897-97.654 20.208-20.877 46.701-34.817 77.429-40.74 44.582-8.5931 94.253-3.4647 127.29 13.142 39.749 19.98 61.745 54.07 70.679 109.54 2.1521 13.361 2.2163 16.209 2.5119 111.46l0.3033 97.75h-87.986v-92.449c0-98.569-0.2442-104.54-5.0355-123.05-2.645-10.221-9.6007-24.501-15.244-31.297-4.9002-5.9007-12.842-12.218-19.781-15.734-9.1634-4.6434-16.279-5.9115-32.939-5.8701-14.078 0.035-16.234 0.2836-23.5 2.7102-4.4 1.4695-10.257 3.9748-13.015 5.5674-19.421 11.213-32.5 35.532-36.37 67.623-0.70069 5.8115-1.1144 41.505-1.1679 100.75l-0.0828 91.75h-87.994l0.4151-92.75z" fill="#1a1a1a"/>
</g>
</svg>
