<?xml version="1.0" encoding="UTF-8"?>
<svg fill="none" viewBox="0 0 355 85" xmlns="http://www.w3.org/2000/svg">
<path d="m27.885 42.719h20.41c3.3529 0 6.1849-1.1231 8.4961-3.3692 2.3438-2.2786 3.5156-5.485 3.5156-9.6191 0-3.0925-1.2207-5.8594-3.6621-8.3008-2.4414-2.474-5.2246-3.7109-8.3496-3.7109h-30.176v63.281h-3.5156v-66.797h33.691c4.1016 0 7.7149 1.5788 10.84 4.7364 3.125 3.1575 4.6875 6.7545 4.6875 10.791 0 4.9804-1.5137 8.9843-4.5411 12.012-3.0273 2.9948-6.6894 4.4922-10.986 4.4922h-20.41v-3.5156zm0 7.0312h20.41c3.3854 0 6.5104-0.8138 9.375-2.4414 2.8972-1.6602 5.2246-4.0365 6.9824-7.1289 1.7904-3.0925 2.6856-6.5755 2.6856-10.449 0-5.0131-1.9206-9.4401-5.7617-13.281-3.8086-3.8411-8.2357-5.7617-13.281-5.7617h-37.207v70.312h-3.5156v-73.828h40.723c3.9388 0 7.6498 1.0417 11.133 3.125 3.4831 2.0833 6.25 4.8665 8.3008 8.3496 2.0833 3.4831 3.125 7.1777 3.125 11.084 0 4.4271-1.0417 8.4635-3.125 12.109-2.0833 3.6133-4.8502 6.4291-8.3008 8.4473-3.4179 1.9857-7.1289 2.9785-11.133 2.9785h-20.41v-3.5156zm0 7.0312h20.41c3.4831 0 6.8197-0.6835 10.01-2.0507 3.1901-1.3998 5.957-3.2715 8.3008-5.6153 2.3763-2.3763 4.2643-5.2409 5.664-8.5937 1.3998-3.3854 2.0996-6.9824 2.0996-10.791 0-4.5573-1.1881-8.8379-3.5644-12.842-2.3763-4.0365-5.5827-7.2429-9.6192-9.6192-4.0039-2.4088-8.3007-3.6133-12.891-3.6133h-44.238v77.344h-3.5156v-80.859h47.754c5.2084 0 10.091 1.3672 14.648 4.1016 4.5573 2.7018 8.1868 6.3314 10.889 10.889 2.7019 4.5573 4.0528 9.4238 4.0528 14.6 0 4.6224-0.7976 8.8867-2.3926 12.793-1.5951 3.8737-3.7435 7.0964-6.4453 9.668s-5.8431 4.5736-9.4239 6.0059c-3.5807 1.3997-7.3567 2.0996-11.328 2.0996h-20.41v-3.5157zm-2.7344 24.219h-3.5156v-59.766h26.66c2.3112 0 4.2969 0.8463 5.9571 2.539 1.6927 1.6927 2.539 3.6784 2.539 5.9571 0 6.3151-2.832 9.4726-8.4961 9.4726h-20.41v-3.5156h20.41c1.5625 0 2.7832-0.4395 3.6621-1.3184s1.3184-2.4251 1.3184-4.6386c0-1.4323-0.4883-2.6205-1.4649-3.5645-0.944-0.944-2.1158-1.416-3.5156-1.416h-23.144v56.25zm95.362-23.73 1.416-3.5156h12.011l1.416 3.5156h-14.843zm-2.735 7.0313 1.368-3.5156h17.529l1.514 3.5156h-20.411zm-2.734 7.0312 1.367-3.5156h23.047l1.465 3.5156h-25.879zm-28.564 9.668h-3.8086l31.982-80.859h3.809l31.934 80.859h-3.76l-30.078-76.123-30.078 76.123zm30.518-67.773 2.002 4.4922-25 63.281h-3.7597l26.758-67.773zm3.906 9.2773 1.856 4.834-21.143 53.662h-3.8084l23.095-58.496zm3.711 9.668 1.856 4.9316-17.334 43.896h-3.76l19.238-48.828zm48.487 48.828h-3.809l-31.934-80.859h3.76l31.983 80.859zm-39.551-80.859 31.982 80.859h-3.76l-31.982-80.859h3.76zm-7.569 0 31.983 80.859h-3.809l-31.933-80.859h3.759zm110.21 45.312v-45.312h3.515v45.312c0 4.9479-1.953 9.1797-5.859 12.695-3.906 3.5157-8.594 5.2735-14.063 5.2735-5.468 0-10.156-1.7578-14.062-5.2735-3.906-3.5156-5.86-7.7474-5.86-12.695v-45.312h3.516v45.312c0 3.9714 1.595 7.3731 4.785 10.205 3.223 2.832 7.097 4.248 11.621 4.248 4.525 0 8.382-1.416 11.573-4.248 3.222-2.832 4.834-6.2337 4.834-10.205zm7.031 0v-45.312h3.515v45.312c0 3.3854-0.716 6.6244-2.148 9.7168-1.432 3.0599-3.353 5.7129-5.762 7.959s-5.273 4.0365-8.593 5.3711c-3.321 1.3021-6.804 1.9531-10.45 1.9531s-7.129-0.651-10.449-1.9531c-3.32-1.3346-6.185-3.125-8.594-5.3711s-4.329-4.8991-5.761-7.959c-1.433-3.0924-2.149-6.3314-2.149-9.7168v-45.312h3.516v45.312c0 3.8737 1.041 7.4707 3.125 10.791 2.116 3.2878 4.964 5.892 8.545 7.8125 3.613 1.9206 7.536 2.8809 11.767 2.8809 4.232 0 8.138-0.9603 11.719-2.8809 3.613-1.9205 6.462-4.5247 8.545-7.8125 2.116-3.3203 3.174-6.9173 3.174-10.791zm7.031 0v-45.312h3.516v45.312c0 4.3295-0.912 8.4798-2.735 12.451-1.79 3.9388-4.199 7.3405-7.226 10.205-3.028 2.8646-6.641 5.1432-10.84 6.8359s-8.594 2.5391-13.184 2.5391-8.984-0.8464-13.183-2.5391c-4.2-1.6927-7.813-3.9713-10.84-6.8359s-5.453-6.2663-7.276-10.205c-1.79-3.9714-2.685-8.1217-2.685-12.451v-45.312h3.516v45.312c0 5.1433 1.367 9.9121 4.101 14.307 2.734 4.3619 6.429 7.8287 11.084 10.4 4.688 2.539 9.782 3.8086 15.283 3.8086 5.502 0 10.58-1.2696 15.235-3.8086 4.687-2.5717 8.398-6.0385 11.132-10.4 2.735-4.3946 4.102-9.1634 4.102-14.307zm7.031 0v-45.312h3.516v45.312c0 7.0313-1.839 13.558-5.518 19.58-3.678 5.9896-8.675 10.742-14.99 14.258-6.282 3.4831-13.118 5.2246-20.508 5.2246-7.389 0-14.241-1.7415-20.556-5.2246-6.283-3.5156-11.263-8.2682-14.942-14.258-3.678-6.0221-5.517-12.549-5.517-19.58v-45.312h3.515v45.312c0 4.7852 0.993 9.375 2.979 13.77 1.985 4.3945 4.655 8.1868 8.008 11.377 3.352 3.1576 7.34 5.6803 11.963 7.5684 4.654 1.888 9.505 2.832 14.55 2.832 5.046 0 9.88-0.944 14.502-2.832 4.655-1.8881 8.659-4.4108 12.012-7.5684 3.353-3.1901 6.022-6.9824 8.008-11.377 1.985-4.3946 2.978-8.9844 2.978-13.77zm12.5-45.312h3.516v80.859h-3.516v-80.859zm21.094 0h3.516v63.281h28.125v3.5156h-28.125v3.5156h28.125v3.5157h-28.125v3.5156h28.125v3.5156h-31.641v-80.859zm-7.031 0h3.515v80.859h-3.515v-80.859zm-7.031 0h3.515v80.859h-3.515v-80.859zm74.609 0h3.516v80.859h-3.516v-80.859zm-7.031 0h3.515v80.859h-3.515v-80.859zm-7.032 0h3.516v80.859h-3.516v-80.859zm-7.031 0h3.516v80.859h-3.516v-80.859z" fill="#1A1A1A"/>
</svg>

