<?xml version="1.0" encoding="UTF-8"?>
<svg viewBox="0 0 377 229" xmlns="http://www.w3.org/2000/svg">
<path d="m9.5068 227v-109.97h47.454c26.909 0 40.364 10.769 40.364 32.307 0 21.753-14.958 32.629-44.876 32.629h-11.038v45.037h-31.904zm31.904-55.188h7.1704c11.602 0 17.402-7.681 17.402-23.042 0-14.395-5.8008-21.592-17.402-21.592h-7.1704v44.634zm137.93-54.785v11.037h-39.397v33.274h33.113v11.038h-33.113v43.586h46.084v11.038h-77.988v-109.97h71.301zm97.163 0v109.97h-24.412l-45.923-69.609v69.609h-10.715v-109.97h20.222l50.113 75.168v-75.168h10.715z" fill="#1A1A1A"/>
<path d="m182.61 81.616h31.558v41.384h-7.075l-2.415-5.278c-6.177 4.38-12.709 6.57-19.597 6.57-11.343 0-20.159-3.388-26.448-10.164-6.251-6.813-9.377-16.397-9.377-28.75 0-12.017 3.313-21.731 9.939-29.143 6.663-7.4496 15.367-11.174 26.111-11.174 14.15 0 22.76 7.225 25.83 21.675l-10.445 4.7729v-1.853l-0.168-4.1553c-0.711-9.0218-4.885-13.533-12.522-13.533-5.615 0-9.452 2.3958-11.511 7.1875s-3.089 13.72-3.089 26.785c0 12.204 0.824 20.496 2.471 24.876 1.685 4.38 4.867 6.57 9.546 6.57 5.503 0 8.254-3.07 8.254-9.209v-18.867h-11.062v-7.6929zm77.378-35.264 21.338 76.648h-22.348l-4.549-16.621h-23.078l-4.886 16.621h-8.703l22.685-76.648h19.541zm-26.447 52.334h18.811l-9.041-33.972-9.77 33.972z" fill="#1A1A1A"/>
<path d="m290.4 1.3452v48.655h-13.616v-33.862l-9.481 33.862h-7.878l-9.731-33.292v33.292h-4.74v-48.655h14.329l8.34 29.371 8.306-29.371h14.471zm30.512 0 13.545 48.655h-14.187l-2.887-10.551h-14.65l-3.101 10.551h-5.525l14.401-48.655h12.404zm-16.789 33.221h11.941l-5.738-21.565-6.203 21.565zm69.472-33.221-12.761 20.816 15.505 27.838h-15.683l-9.339-17.109-10.373 17.109h-6.344l13.723-22.242-14.686-26.413h15.648l8.697 15.862 9.411-15.862h6.202z" fill="#1A1A1A"/>
</svg>
